<svg data-name="Layer 1" xmlns="http://www.w3.org/2000/svg" viewBox="0 0 325 276" preserveAspectRatio="xMinYMin meet">
  <title>Logo</title>
  <g>
    <path d="M324.86,196c-0.06-1.76-.34-3.5-0.55-5.29-0.13-.89-0.3-1.77-0.46-2.67l-0.24-1.35-0.3-1.39-0.64-2.81L322,180l-0.39-1.42-0.45-1.39-0.92-2.81A73.37,73.37,0,0,0,315,163.15,60.48,60.48,0,0,0,308.5,154a106.64,106.64,0,0,0,5.06-33.87c0-1.53-.09-3.06-0.15-4.59s-0.14-3.07-.32-4.59-0.3-3.06-.49-4.58l-0.71-4.56c-0.65-3.61-1.43-7.21-2.36-10.77a24.23,24.23,0,0,0,7.53-13c1.56-7.57-.85-15.31-6.62-21.24A24.27,24.27,0,0,0,292,49.89c-0.61,0-1.21.08-1.81,0.15a120.3,120.3,0,0,0-25.57-26.3l-1.9-1.41-0.95-.7-1-.66-3.94-2.62c-2.72-1.62-5.41-3.27-8.24-4.68l-2.1-1.1c-0.73-.35-1.49-0.69-2.23-1l-2.24-1-1.12-.5c-0.38-.18-0.69-0.28-1-0.42L235.75,8l-0.26-.1A4,4,0,0,0,235,7.75l-0.56-.18-1.11-.36-2.22-.73c-0.74-.24-1.48-0.49-2.22-0.72l-2.25-.61c-1.5-.4-3-0.85-4.5-1.19l-4.53-1-1.13-.25-1.14-.2-2.28-.39c-3-.58-6.08-0.9-9.12-1.29-1.52-.16-3.05-0.26-4.57-0.39l-2.28-.18-2.29-.09L190.26,0H185.7c-1.52,0-3,.05-4.54.13s-3,.11-4.52.23c-3,.27-6,0.47-9,0.91-1.49.21-3,.34-4.45,0.62l-4.42.74a155.06,155.06,0,0,0-17.31,4.14,163.08,163.08,0,0,0-16.57,5.94l-4,1.75c-1.33.59-2.62,1.27-3.92,1.9-2.63,1.23-5.13,2.69-7.66,4.07A138.67,138.67,0,0,0,95,29.89,117.31,117.31,0,0,0,76.93,46.61c-1.46.12-2.92,0.24-4.36,0.49-0.91.15-1.84,0.25-2.75,0.43l-2.72.58c-0.45.1-.91,0.18-1.36,0.29l-1.35.36-2.69.73L59,50.38l-1.33.43-1.3.5c-0.57.21-1.13,0.44-1.69,0.67a24.28,24.28,0,0,0-4.05-3.41l-1.65-1-0.31-.18-1.43-.68c-0.13-.06-0.21-0.11-0.4-0.18l-0.64-.24c-0.45-.17-0.94-0.34-1.47-0.52a11.17,11.17,0,0,0-1.58-.4c-0.54-.11-1.11-0.25-1.71-0.33a30.48,30.48,0,0,0-8.31.08,43.45,43.45,0,0,0-9.94,2.64,38.75,38.75,0,0,0-5.35,2.6,27.46,27.46,0,0,0-5.31,4.18l-0.16.16,0,0-0.17.19L12.12,55l-0.24.27-0.48.53L11.17,56a3.79,3.79,0,0,0-.26.31l-0.58.76a32.79,32.79,0,0,0-2,3,41.13,41.13,0,0,0-3,6.4,37.76,37.76,0,0,0-1.86,7.07A32.67,32.67,0,0,0,3,81.36a27.38,27.38,0,0,0,.63,4.16,18.76,18.76,0,0,0,.61,2.14l0.18,0.54,0,0.13,0,0.07,0.07,0.18,0.07,0.19,0.15,0.38,0.25,0.58c0.19,0.42.36,0.75,0.53,1.09s0.37,0.68.56,1a19.67,19.67,0,0,0,1.33,2c0.41,0.53.85,1,1.32,1.55-0.21.43-.42,0.86-0.6,1.31-0.75,1.75-1.54,3.48-2.17,5.28l-0.5,1.34-0.25.67L5,104.67l-0.42,1.26c-0.14.42-.28,0.83-0.41,1.32-0.27.93-.57,1.88-0.8,2.79s-0.49,1.82-.7,2.73l-0.62,2.75-0.54,2.76A94.17,94.17,0,0,0,.17,140.66a71.94,71.94,0,0,0,4.84,22,63,63,0,0,0,5.17,10.08,61.39,61.39,0,0,0,7,8.82,57.08,57.08,0,0,0,4.67,4.31c-0.48.89-.93,1.8-1.39,2.7l-0.36.72-0.3.74-0.6,1.49L18.56,193,18.1,194.5a28.33,28.33,0,0,0-.83,3.07c-0.2,1-.45,2.06-0.61,3.1l-0.35,3.12A43.19,43.19,0,0,0,21.13,227l1.41,2.48a11.27,11.27,0,0,0,.76,1.19l0.8,1.15a44.63,44.63,0,0,0,3.4,4.28A46.61,46.61,0,0,0,43.32,247.4a50.86,50.86,0,0,0,14.33,4,48.48,48.48,0,0,0,5.42.5c0.79,0,1.52.11,2.19,0.1l1.8,0,3.31-.07,0.21,0,0.73-.06c0.49,0,1.2-.1,2.14-0.19,1.1-.17,2.59-0.39,4.15-0.76l2.49-.64,2.81-.88c1-.36,2-0.73,3.1-1.16l1.65-.72,0.85-.37,0.86-.43a44.52,44.52,0,0,0,7.17-4.4c0.23-.17.45-0.36,0.68-0.54q0.53,0.93,1.1,1.83c0.71,1.16,1.51,2.25,2.3,3.36s1.65,2.16,2.54,3.16A70.51,70.51,0,0,0,115,261l1.62,1.16,0.82,0.58,0.2,0.14,0.1,0.07,0.33,0.21,0.39,0.25,3.1,2,0.4,0.25,0.48,0.26,1,0.52,1.92,1c1.3,0.74,2.54,1.25,3.81,1.83a70.19,70.19,0,0,0,16,4.93,61.91,61.91,0,0,0,33.68-3.06c1.35-.56,2.69-1.21,4-1.83l2-1.1,1-.56,0.48-.28,0.43-.29,0.09-.07,0.18-.13,1.48-1,0.74-.52c0.29-.22.63-0.51,0.95-0.76q1-.79,1.9-1.6l0.47-.41c0.15-.13.27-0.27,0.4-0.4l0.79-.8A44,44,0,0,0,203,246.82a53.23,53.23,0,0,0,2.76-9.56,150.89,150.89,0,0,0,32.11-9.38,60.73,60.73,0,0,0,18.88,10.39,71.72,71.72,0,0,0,20.42,3.7,69.6,69.6,0,0,0,8.81-.32,64.3,64.3,0,0,0,7.54-1.27c1.14-.27,2.22-0.52,3.23-0.85s2-.58,2.84-0.92,1.67-.61,2.45-1,1.54-.74,2.19-1.06l0.88-.47,0.55-.34,0.85-.54,0.7-.44,0.3-.18s1.19-.85,3.33-2.52l1.71-1.55,1-.9c0.34-.31.65-0.7,1-1.06,0.66-.76,1.42-1.53,2.11-2.46s1.43-1.92,2.12-3l1-1.72a19.29,19.29,0,0,0,1-1.83l0.89-2c0.15-.34.31-0.67,0.44-1l0.37-1.06,0.73-2.19c0.22-.75.38-1.51,0.57-2.28a44.55,44.55,0,0,0,.86-4.79A55.07,55.07,0,0,0,324.86,196ZM303.67,63.43c3.6,3.7,5.07,8.22,4.14,12.74a13.92,13.92,0,0,1-1.66,4.25,137.46,137.46,0,0,0-5.88-13.69c-1.23-2.4-2.54-4.76-3.91-7.09A13.81,13.81,0,0,1,303.67,63.43ZM14.86,75a26.58,26.58,0,0,1,.82-5.15,25.24,25.24,0,0,1,1.73-4.74c0.37-.69.77-1.48,1.1-2l0.25-.42a1.76,1.76,0,0,1,.18-0.26l0.22-.29,0.43-.57,0.22-.28h0l0.06-.06A17.74,17.74,0,0,1,23,58.48a23.58,23.58,0,0,1,3.78-2.06,22.58,22.58,0,0,1,7.39-1.84,18.93,18.93,0,0,1,5.49.39c0.35,0.08.65,0.2,0.95,0.28a3.52,3.52,0,0,1,.73.25,4.84,4.84,0,0,0,.47.2L42,55.78c0.07,0,.23.13,0.33,0.18l1.37,0.79-0.31-.18,0.69,0.52A86.16,86.16,0,0,0,20.17,77.35C18.71,79.18,17.3,81,16,83a4,4,0,0,1-.29-0.73A15.06,15.06,0,0,1,15.1,80a20.81,20.81,0,0,1-.24-5C15,73.25,14.76,76.71,14.86,75Zm3.42,82a58,58,0,0,1-4.81-17.47,79.56,79.56,0,0,1,.18-19.27L14,117.75l0.43-2.43c0.15-.81.33-1.61,0.5-2.42s0.37-1.56.55-2.34c0.08-.37.2-0.81,0.32-1.23L16.17,108l0.09-.32,0-.16,0-.07,0.19-.59,0.38-1.18c0.46-1.58,1.08-3.11,1.66-4.67,0.05-.15.12-0.29,0.18-0.44,0.25-.62.53-1.23,0.79-1.85s0.63-1.54,1-2.27c0.74-1.49,1.45-3,2.29-4.44a67.22,67.22,0,0,1,3.64-5.9q0.87-1.28,1.77-2.55a77,77,0,0,1,13.88-14.5A56.35,56.35,0,0,1,48,64.87q1.15-.73,2.31-1.43l2.2-1.18,1.1-.58,1.13-.52c0.75-.35,1.5-0.7,2.26-1l2.12-.81,0.19-.07A52.11,52.11,0,0,1,69,56.6a63.67,63.67,0,0,1,9.45-.92,18,18,0,0,1,1.88,0h0.52c0.8,0,1.59,0,2.38.08L85.61,56l1.18,0.11L88,56.29l2.33,0.36c0.78,0.11,1.53.32,2.3,0.49s1.52,0.34,2.28.53l2.23,0.67c0.55,0.15,1.09.32,1.62,0.51-0.72.52-1.44,1.06-2.14,1.66a26.22,26.22,0,0,0-6,7.18,22,22,0,0,0-2.76,9.88c0,0.95,0,1.92.09,2.89v0.31L88,81l0.06,0.51,0.12,1,0,0.25v0.06s0.06,0.3.08,0.4v0l0,0.15L88.45,84l0.27,1.21c0.22,0.78.43,1.57,0.68,2.34a53.77,53.77,0,0,0,9.07,16.59,51.78,51.78,0,0,0,14.38,12.78,35.23,35.23,0,0,0,9.68,3.94,25.08,25.08,0,0,0,11.61,0,22.91,22.91,0,0,0,5.67-2.21l0.33-.18,0.36-.23,0.73-.47,0.34-.23a82.91,82.91,0,0,1,.19,14.5,72.15,72.15,0,0,1-1.61,10.69c-0.17.81-.42,1.57-0.61,2.33l-0.3,1.12c-0.1.37-.24,0.72-0.35,1.07l-0.67,2.07-0.74,1.91a47.9,47.9,0,0,1-3,6.27c-0.49.87-1,1.61-1.46,2.32l-0.33.51-0.31.4-0.56.74a31,31,0,0,1-2.12,2.59l-0.86,1,0.25-.29-0.78.79-1,1c-0.38.39-.86,0.8-1.37,1.28a63.62,63.62,0,0,1-9.84,7.39,69.77,69.77,0,0,1-12.37,5.92c-1.75.64-3.6,1.23-5.55,1.76-1.68.46-3.44,0.87-5.26,1.23a84.36,84.36,0,0,1-11.87,1.49,88.69,88.69,0,0,1-8.93.06,96,96,0,0,1-14.87-1.81l-0.3-.06c-1.29-.29-2.61-0.55-3.9-0.9l-2-.5-1.87-.53-0.47-.13-0.53-.17-1.07-.34-1.07-.35-0.13,0-0.08,0-0.16-.06-0.46-.17c-1.24-.46-2.52-0.87-3.71-1.44-0.59-.26-1.2-0.51-1.79-0.78l0,0-1.78-.91L37,177l-0.86-.51-1.73-1c-0.88-.58-1.74-1.19-2.6-1.82a42,42,0,0,1-3.8-3.13,46.22,46.22,0,0,1-5.47-6.2A48.8,48.8,0,0,1,18.28,156.94ZM113.22,60.2l1.28-.39c0.42-.13.93-0.21,1.39-0.32l0.7-.15,0.71-.1c0.47-.06.93-0.16,1.4-0.2a29.91,29.91,0,0,1,5.63,0,22.11,22.11,0,0,1,4.41.88,20.56,20.56,0,0,1,6.69,3.36c0.42,0.29.75,0.64,1.1,0.93a7.74,7.74,0,0,1,.91.86l0.73,0.79,0.32,0.34,0.25,0.34,0.9,1.21,1,1.69a16.26,16.26,0,0,1,1,1.87c0.36,0.67.7,1.6,1.1,2.58a26.92,26.92,0,0,1,1.38,5.93c0,0.44.09,0.89,0.1,1.35A21.35,21.35,0,0,1,142.79,90a31.19,31.19,0,0,1-5.31,8.56l-0.17.21c-0.67.71-1.29,1.44-2,2.17L134.22,102l-0.55.55-0.27.28-0.14.14h0l-0.52.43-0.37.31-0.18.15-0.09.08h0a0.44,0.44,0,0,0-.18.07l-0.07.06,0,0-0.1,0a6.23,6.23,0,0,1-1.56.65,9.34,9.34,0,0,1-4.23.12,22.08,22.08,0,0,1-5.58-1.84,44.8,44.8,0,0,1-11.46-8.15,43.23,43.23,0,0,1-8.68-11.52c-0.25-.52-0.46-1-0.69-1.55l-0.29-.77L99,80.7l0-.1a1.86,1.86,0,0,0,0,.24l0-.06-0.06-.25-0.26-1L98.56,79l-0.06-.25,0-.12V78.61c0-.38-0.12-0.76-0.2-1.16A11.29,11.29,0,0,1,99,71.89c1.46-3.61,4.78-6.77,8.45-8.94l0.38-.23c0.33-.2.67-0.39,1-0.57s0.93-.52,1.42-0.73l0.72-.33,0.36-.17,0,0-0.09,0,0.1,0,0.2-.08ZM86.92,228.55a27.65,27.65,0,0,1-4.72,2.36l-0.57.23-0.58.19-1.12.38-2.15.6-2,.44-1.8.3c-0.57.12-1,.14-1.47,0.22l-1.2.21c-0.93.13-1.65,0.23-2.13,0.31l-0.72.11-2.24.24-1.34.15c-0.49,0-1,0-1.59.06a32.44,32.44,0,0,1-3.94,0c-0.73-.05-1.51-0.05-2.31-0.14l-2.49-.35-0.66-.09-0.65-.15-1.35-.29c-0.45-.11-0.94-0.17-1.39-0.32l-1.4-.44c-0.47-.15-1-0.28-1.45-0.46l-1.43-.6c-0.48-.21-1-0.38-1.48-0.63l-1.45-.77a31.06,31.06,0,0,1-2.92-1.77,14.64,14.64,0,0,1-1.42-1.06c-0.46-.38-1-0.71-1.42-1.13a30.75,30.75,0,0,1-2.65-2.66l-0.64-.72a5.89,5.89,0,0,1-.62-0.76l-1.18-1.6a29.76,29.76,0,0,1-5.23-16.25,29.72,29.72,0,0,1,1.29-9.38,24.4,24.4,0,0,1,1.22-3.31L30,191.62l2.3,1.32c0.78,0.41,1.56.79,2.34,1.18,1.55,0.81,3.14,1.44,4.71,2.11l0.59,0.25,0.29,0.12,0.39,0.14,1.06,0.39,1.05,0.39,0.53,0.2,0.6,0.2,2.38,0.8,2.3,0.71c1.52,0.48,3,.85,4.56,1.27a114,114,0,0,0,17.85,3l2.17,0.18c0.49,0.47,1,.93,1.46,1.38s1.23,1.17,1.85,1.71l1.89,1.58c1.25,1,2.45,2.09,3.71,3l3.65,2.69,3.6,2.36c0.59,0.38,1.16.77,1.74,1.12l0.29,0.17c0,0.93-.08,1.87-0.06,2.81a39.77,39.77,0,0,0,.3,4.23A24.32,24.32,0,0,1,86.92,228.55ZM187.7,240.32a29.06,29.06,0,0,1-6.21,8.8,19.76,19.76,0,0,1-1.78,1.58c-0.15.13-.25,0.23-0.44,0.38l-0.75.51-1.5,1-0.05,0-0.29.15-0.61.33-1.21.69c-0.88.38-1.73,0.8-2.62,1.17a43,43,0,0,1-11.76,2.75,52.75,52.75,0,0,1-12.64-.32,59.23,59.23,0,0,1-12.42-3.29c-1-.4-2.05-0.76-2.92-1.2l-1.37-.62-0.69-.31-0.35-.15-0.4-.22-3.22-1.78-0.4-.22c-0.14-.08,0,0,0,0l-0.17-.1-0.71-.44-1.41-.88c-1.83-1.21-3.64-2.45-5.3-3.78a50,50,0,0,1-4.75-4.16c-0.76-.72-1.42-1.48-2.12-2.23s-1.32-1.54-1.9-2.35a36.46,36.46,0,0,1-3.06-4.74l-0.11-.2a31.48,31.48,0,0,1-2.4-6.07,28.56,28.56,0,0,1-.91-4.66,32.4,32.4,0,0,1,.79-11,38.38,38.38,0,0,1,1.52-4.76q0.74-1.88,1.65-3.66c0.3-.59.61-1.18,0.94-1.75,0.67-1.2,1.4-2.34,2.17-3.45,0.25-.36.48-0.72,0.73-1.07a50.87,50.87,0,0,1,3.26-4.1,56.82,56.82,0,0,1,7.2-6.81,60.39,60.39,0,0,1,7.43-5.09,48.8,48.8,0,0,1,13.54-5.51,51,51,0,0,1,5.31-.9l0.32,0c1.41-.14,2.64-0.2,3.6-0.22h1.35l1.11,0,0.91,0H155l0.82,0.08c0.54,0.06,1.34.1,2.37,0.25a37.83,37.83,0,0,1,8.64,2.36,34.42,34.42,0,0,1,5.68,2.91,37.94,37.94,0,0,1,5.92,4.57,35.09,35.09,0,0,1,2.76,2.93l0.33,0.39,0.25,0.34c0.17,0.23.33,0.41,0.59,0.8l0.35,0.51,0,0.06c0.1,0.13-.08-0.11-0.05-0.06L182.8,187l0.15,0.25,0.61,1a60.43,60.43,0,0,1,4.38,8.67c0.64,1.55,1.21,3.16,1.71,4.81a49.17,49.17,0,0,1,1.27,5.08c0.18,0.87.31,1.74,0.45,2.63s0.23,1.8.29,2.61l0.06,0.62,0.05,0.77,0.05,0.78v0.29c0,0.14,0-.08,0,0v0.36l0,1.05,0,1.86c0,7.41-1,15.1-3.82,21.7C188,239.72,187.83,240,187.7,240.32Zm18.41-27.6,0-.1-0.12-.77-0.12-.78-0.16-.91c-0.21-1.24-.48-2.34-0.73-3.46s-0.57-2.2-.9-3.27a62.43,62.43,0,0,0-2.22-6.18c-0.82-2-1.72-3.86-2.68-5.66a72.33,72.33,0,0,0-6.23-9.76l-0.83-1.08-0.5-.65-0.4-.47c-0.23-.28-0.62-0.71-1-1.1l-0.53-.58-0.5-.5a45.81,45.81,0,0,0-4-3.51,48,48,0,0,0-7.92-5.06,48.79,48.79,0,0,0-7.33-3.06,46.57,46.57,0,0,0-10.89-2.14c-1.27-.09-2.26-0.07-2.91-0.1l-1,0h-0.08l-0.91,0-1.12,0-0.43,0a60.87,60.87,0,0,0,2.37-6,71.55,71.55,0,0,0,2.88-11.41,91,91,0,0,0,.12-28.62,102.44,102.44,0,0,0-3.78-16.14,33.32,33.32,0,0,0,2.34-8.34c0.15-1.31.26-2.6,0.34-3.84s0-2.47-.1-3.65l-0.44-3.39-0.7-3.1a44.43,44.43,0,0,0-3.94-9.49c-0.72-1.2-1.29-2.26-2-3.2s-1.18-1.78-1.57-2.23l-1.24-1.59-0.09-.12-1.6-1.79-0.42-.46-0.51-.46-1.17-1a13.72,13.72,0,0,0-1.43-1.11c-0.53-.36-1.06-0.8-1.68-1.16a32.06,32.06,0,0,0-9.34-3.9,40.06,40.06,0,0,0-12.69-1c-0.58,0-1.17.13-1.76,0.19l-0.89.11-0.9.16c-0.61.12-1.19,0.2-1.84,0.37l-0.5.13c-0.73-.33-1.45-0.65-2.18-0.9l-2.48-.93-1.25-.46L105,49.94c-1.71-.51-3.4-1.08-5.17-1.45a79.18,79.18,0,0,0-11.19-1.85,102,102,0,0,1,11.61-9.75c1.08-.76,2.13-1.57,3.24-2.3l3.35-2.17c1.1-.75,2.27-1.4,3.43-2.07s2.31-1.35,3.51-2c2.41-1.2,4.77-2.51,7.27-3.57,1.24-.55,2.46-1.14,3.72-1.66l3.79-1.52c1.26-.53,2.56-1,3.85-1.41s2.57-.93,3.89-1.33c2.64-.77,5.26-1.59,8-2.21a144.39,144.39,0,0,1,16.3-3.1c22-2.83,45-.51,65.48,7.49l1.91,0.77,1,0.38,0.48,0.19s0.36,0.14,0,0l0.25,0.12,4,1.85c0.32,0.15.7,0.31,1,.46l0.85,0.46,1.7,0.92,1.7,0.92,1.73,1c2.33,1.34,4.53,2.9,6.74,4.4l3.2,2.44,0.8,0.61L252,36.29l1.53,1.3a105.7,105.7,0,0,1,19.58,22.19c0.41,0.62.83,1.23,1.22,1.85,1.65,2.66,3.18,5.38,4.6,8.15,1,1.89,1.91,3.8,2.77,5.73a108.31,108.31,0,0,1,3.83,10.23c0.46,1.45.9,2.9,1.3,4.36,0.65,2.39,1.18,4.8,1.63,7.21s0.85,5.12,1.14,7.68l0.34,3.72c0.07,1.24.1,2.47,0.15,3.7s0,2.46,0,3.68,0,2.44-.11,3.65l-0.24,3.62-0.44,3.57c-0.12,1.19-.34,2.36-0.55,3.53l-0.3,1.75-0.15.87-0.2.86-0.8,3.43c-0.25,1-.54,1.9-0.82,2.84l-0.59-.14-1.76-.41-0.88-.2c-0.3-.06-0.62-0.09-0.93-0.14-1.24-.17-2.53-0.36-3.73-0.47l-3.26-.14-0.41,0h-1.48l-1.75,0c-1.18,0-2.37.11-3.57,0.22a51.38,51.38,0,0,0-7.2,1.2c-1.18.34-2.37,0.62-3.53,1.06-0.58.21-1.17,0.39-1.74,0.61l-1.7.7c-0.57.22-1.12,0.49-1.67,0.76l-1.65.81c-1.06.6-2.14,1.18-3.17,1.84a56.2,56.2,0,0,0-5.92,4.27l-1.42,1.21-0.71.61c-0.22.2-.41,0.39-0.62,0.59l-1.21,1.16-0.61.58-0.39.38-0.31.34c-0.83.9-1.7,1.77-2.45,2.74l-1.16,1.42-1.07,1.48a56.14,56.14,0,0,0-3.86,6.16,62.65,62.65,0,0,0-3,6.59,56.51,56.51,0,0,0-3.3,13.95,51.35,51.35,0,0,0,.55,14.25,41.83,41.83,0,0,0,1.27,5.12A137.18,137.18,0,0,1,206.1,212.72Zm102.64-16.4a38.25,38.25,0,0,1-.93,7.11,27,27,0,0,1-.88,2.92c-0.17.45-.31,0.9-0.48,1.32s-0.39.8-.56,1.19l-0.26.58c-0.09.18-.21,0.35-0.3,0.52l-0.58,1a7,7,0,0,1-.61.9l-0.59.84A22.17,22.17,0,0,1,299,216.9c-0.85.51-1.42,0.86-1.71,1l-0.65.35-0.89.48-0.57.31c-0.18.1-.29,0.12-0.45,0.2s-0.62.28-1,.49-0.92.42-1.43,0.68-1.13.49-1.76,0.75-1.34.5-2.08,0.75a45.26,45.26,0,0,1-5.15,1.35,51.67,51.67,0,0,1-6.42.8,50.87,50.87,0,0,1-7.49,0,52.69,52.69,0,0,1-8.28-1.19,50.36,50.36,0,0,1-8.1-2.54,40.68,40.68,0,0,1-8.8-4.9,32.52,32.52,0,0,1-7-7,30.22,30.22,0,0,1-3.61-6.67c-0.33-.86-0.64-1.74-0.9-2.64l-0.19-.65-0.1-.32a0.41,0.41,0,1,0,0,.09l0-.1,0-.19-0.33-1.55-0.16-.78c-0.06-.27-0.06-0.44-0.1-0.67l-0.18-1.29a13,13,0,0,1-.14-1.37l-0.11-1.42c0-1,0-1.91,0-2.88a42.82,42.82,0,0,1,2-11.62,41.25,41.25,0,0,1,5.22-10.87l0.86-1.25,0.93-1.19c0.6-.82,1.3-1.54,2-2.31l0.25-.28,0,0h0l0.07-.07,0.15-.15,0.59-.59,1.19-1.18c0.2-.19.4-0.4,0.6-0.58l0.57-.48,1.13-1a39,39,0,0,1,10.31-6.37,34.68,34.68,0,0,1,5.69-1.82,38.68,38.68,0,0,1,5.9-.81c1-.05,2-0.07,3-0.06l1.54,0,0.79,0h0.2l0.41,0,3.25,0.3c1,0.16,1.79.37,2.68,0.53,0.22,0,.44.07,0.66,0.14l0.68,0.2,1.33,0.4h0a19.89,19.89,0,0,1,2.62,1c0.43,0.18.86,0.35,1.28,0.53l1.21,0.65,1.21,0.64c0.4,0.21.76,0.5,1.14,0.75a31.37,31.37,0,0,1,7.79,7.24,43.48,43.48,0,0,1,4.52,7.4c0.25,0.51.5,1,.73,1.53a60.47,60.47,0,0,1,3.09,9.52l0.47,2.39,0.24,1.17V182a0.45,0.45,0,1,0,0-.06l0,0.16,0.05,0.33,0.1,0.65,0.4,2.57,0.22,2.21,0.11,1.08,0.06,1.11c0,0.73.1,1.46,0.12,2.17C308.79,193.63,308.85,195,308.75,196.32Z" fill="#06539d"/>
    <path d="M65.06,129a22,22,0,0,0,1.85-9.14c0.15-4.65-2-9.55-7.56-9.35-7,.25-7.77,11.25-7.19,16.19C53,134.3,61.35,136.49,65.06,129Z" fill="#06539d"/>
    <path d="M32.24,126.16a23.44,23.44,0,0,0,3.37-8.54c1-4.49,0-9.61-5-10.38-6.25-1-9,9.57-9.46,14.47C20.54,129.2,27.53,132.75,32.24,126.16Z" fill="#06539d"/>
    <path d="M35,148a7,7,0,0,0,4.27,2.47,5.83,5.83,0,0,0,4.46-1.88c2.36-2.36,5.25-6.15,2.81-9.44-1.62-2.17-4.56-3-7.26-2.81C32.12,136.74,30.14,142.84,35,148Z" fill="#06539d"/>
  </g>
</svg>
