<svg id="Layer_1" data-name="Layer 1" xmlns="http://www.w3.org/2000/svg" viewBox="0 0 325 287" preserveAspectRatio="xMinYMin meet">
  <title>Bee</title>
  <g>
    <path d="M222.34,22.59c-3.66-10.42-17.77-18.18-26.27-19.15-13.79-1.57-25,3.58-34.34,15.73a45.53,45.53,0,0,0-3.25,4.94,16.2,16.2,0,0,0-1.61-3.85C150.09,8.58,137.62.63,125.09,0c-10.71-.5-20.19,4.19-26.67,13.25A36.85,36.85,0,0,0,93.21,45c1.76,6,11.94,27,21.59,30a4.09,4.09,0,0,0,1.21.18c1.74,0,61.83,29.88,63.75,29.88a4.12,4.12,0,0,0,.78-0.07c12.09-2.33,24.11-12.54,33-28C224.05,58.63,227.51,37.3,222.34,22.59Z" fill="#fff"/>
    <path d="M227.43,249.69c22-9,44.32-25.22,54.56-45.81,17.07-34.3,16.68-74.42-4.69-106.73-5.15-7.8-19.47-16.27-27.27-21.74-11.51-8.07-25.77-11.61-39.31-14.52-23.73-5.1-48.95-4.31-73.08-1.5-40.45,4.7-84,25.48-97.49,66.3-8.28,25-10.91,44.71-2.67,70.08,9.36,28.83,35.44,52.78,64.43,61.37,17.64,5.22,35.61,6.35,54.75,6.35,19.49,0,39.56-4,58.21-9.4A123.74,123.74,0,0,0,227.43,249.69Z" fill="#ffdf73"/>
    <path d="M177.68,57.24c-13,.51-26.26,2.83-39.12,4.07a181,181,0,0,0-19.38,3.44c-5.28,1.09-10.94.63-16.11,1.64-4.38.86-11.13,6.31-14.8,6.36,33.59-.52,79.82,17.4,85.22,94.19,2.55,36.16-10.19,87.1-37.32,93.84,7.27-1.81,19.74,1.25,27.35,1.78s14.36,1.07,21.88-.4c47.68-9.35,78.76-22.39,78.21-102.1-0.15-21.48-8.39-47.47-14.23-58.82C228.42,60.53,198.47,56.42,177.68,57.24Z" fill="#402111"/>
    <path d="M223.29,240.07l2-.88,2.37-1.07,2.87-1.41a154.63,154.63,0,0,0,18.69-11.18,98.17,98.17,0,0,0,11.72-9.82,67.85,67.85,0,0,0,10.83-13.6l1.13-2,0.29-.5s0.11-.22,0,0l0.08-.15,0.15-.31,0.62-1.23c0.89-1.75,1.46-3,2.18-4.62a99.64,99.64,0,0,0,3.77-10,93.61,93.61,0,0,0,4.28-22.51,95,95,0,0,0-1.69-24.91,98.55,98.55,0,0,0-9-25.45q-1.6-3.13-3.45-6.19l-0.84-1.39-1.06-1.61c-0.37-.59-0.65-0.93-1-1.37s-0.58-.83-0.95-1.28a63,63,0,0,0-9.8-10A100.92,100.92,0,0,0,230.3,73.56c-19.44-8.09-41.4-11.15-64-10.77-5.64.1-11.32,0.38-17,.82s-11.43,1-17,1.78a142.6,142.6,0,0,0-32.65,8.76,110,110,0,0,0-29,16.74,81.05,81.05,0,0,0-20.8,25.05,68.89,68.89,0,0,0-3.35,7.34c-0.49,1.25-.89,2.53-1.35,3.79l-1.26,4a160.29,160.29,0,0,0-4,16,95.59,95.59,0,0,0-1.79,15.82,82.55,82.55,0,0,0,1.15,15.47A96.35,96.35,0,0,0,43,193.26c0.32,1,.88,2.52,1.3,3.61s0.88,2.2,1.41,3.34c1,2.26,2.14,4.45,3.36,6.58a90.66,90.66,0,0,0,18.1,22.32A95.68,95.68,0,0,0,89.8,244.17a89.1,89.1,0,0,0,11.93,4.63c1,0.27,2,.6,2.94.83,1.08,0.27,2.23.59,3.23,0.81,2,0.46,4,.88,6,1.27a165.45,165.45,0,0,0,23.83,2.5c7.67,0.32,15.17.28,22.07,0.05a164.57,164.57,0,0,0,18.7-2c5.81-.94,11.13-2.05,15.91-3.2s9-2.32,12.74-3.4l5.09-1.53c1.49-.47,2.79-0.91,4-1.34,2.37-.85,4.16-1.57,5.36-2.07l1.82-.77Zm8.12,19.31-2.17.83c-1.44.53-3.58,1.31-6.42,2.21-1.41.44-3,.93-4.78,1.41s-3.53.95-5.54,1.45c-4,1-8.6,2.09-13.82,3.14a204.22,204.22,0,0,1-38.6,4.23c-7.37,0-15.07-.28-23.38-0.93a179.37,179.37,0,0,1-26.13-3.93c-2.25-.53-4.54-1.11-6.92-1.79-1.18-.33-2.18-0.66-3.29-1-1.28-.38-2.37-0.78-3.58-1.18A104.58,104.58,0,0,1,83,257.73a110.2,110.2,0,0,1-25.25-18.51A104,104,0,0,1,38,212.82c-1.31-2.51-2.51-5.1-3.58-7.76-0.54-1.3-1.07-2.7-1.57-4.11-0.28-.73-0.44-1.3-0.66-2l-0.31-1-0.19-.59-0.15-.51a108.19,108.19,0,0,1-3.73-16.83,101.06,101.06,0,0,1,1.54-35.18,170.85,170.85,0,0,1,4.63-17l1.38-4.14c0.54-1.43,1-2.87,1.61-4.29a88.61,88.61,0,0,1,27.4-36.35A125.37,125.37,0,0,1,95.84,64.78a161.6,161.6,0,0,1,34.89-9.71c5.94-1,11.8-1.6,17.66-2.17s11.75-1,17.64-1.17a209.66,209.66,0,0,1,35.18,1.37c2.87,0.37,6,.85,8.66,1.37,2.89,0.5,5.74,1.16,8.57,1.82a157.78,157.78,0,0,1,16.57,5,116.44,116.44,0,0,1,30.33,16,77.71,77.71,0,0,1,12.59,11.84c0.91,1.09,2,2.47,2.75,3.5l1.12,1.56,0.14,0.19,0.24,0.36,0.28,0.43L283,96q2.27,3.39,4.26,6.91a114.9,114.9,0,0,1,11.78,29.19,108.48,108.48,0,0,1,3.19,29.51,112.11,112.11,0,0,1-4.16,27.07,118.72,118.72,0,0,1-4.07,12c-0.78,1.9-1.67,4-2.41,5.6l-0.57,1.25-0.14.31-0.22.46-0.36.7-1.44,2.76a87.7,87.7,0,0,1-13.35,18.1,119.14,119.14,0,0,1-35.83,25.83L236,257.45l-2.46,1-2,.82Z" fill="#402111"/>
    <path d="M81,139.3c11.16,4.67.31,33.05-8.09,19.53C68.89,152.43,71.9,135.51,81,139.3Z" fill="#402111"/>
    <path d="M50.59,140.51c3.52-2.46,8.16-2,9.75,3.39,1.49,5,2,19-6.53,18.06-7.09-.78-8.8-10.75-7-16.31A10.11,10.11,0,0,1,50.59,140.51Z" fill="#402111"/>
    <path d="M66.54,212.08a11.69,11.69,0,0,1-8.3-3.33c-6.48-6.27-6.48-19.8-6.48-25.58a4.08,4.08,0,0,1,4.07-4.08h0a4.06,4.06,0,0,1,4.07,4.06v0c0,3.92,0,15.86,4,19.73a3.48,3.48,0,0,0,2.8,1c5.43-.18,6.43-7.94,6.27-19.54,0-.89,0-1.71,0-2.46a4.07,4.07,0,0,1,8.15,0c0,0.71,0,1.5,0,2.35,0.13,8.87.39,27.33-14.15,27.8H66.54Z" fill="#402111"/>
    <path d="M194.45,285.41a5.69,5.69,0,0,1-4.31-2l-29-33.36a5.7,5.7,0,1,1,8.61-7.48l29,33.36A5.7,5.7,0,0,1,194.45,285.41Z" fill="#402111"/>
    <path d="M225.17,278.9a5.69,5.69,0,0,1-4.41-2.09l-25.59-31.16a5.7,5.7,0,1,1,8.82-7.24l25.59,31.16A5.7,5.7,0,0,1,225.17,278.9Z" fill="#402111"/>
    <path d="M255.73,268.73a5.68,5.68,0,0,1-3.59-1.27l-29.45-23.89a5.7,5.7,0,1,1,7.19-8.86l29.45,23.89A5.7,5.7,0,0,1,255.73,268.73Z" fill="#402111"/>
    <path d="M86.41,277.07a5.71,5.71,0,0,1-2.61-10.78l20.45-10.49a5.71,5.71,0,0,1,5.21,10.15L89,276.44A5.7,5.7,0,0,1,86.41,277.07Z" fill="#402111"/>
    <path d="M121.45,280.8A5.7,5.7,0,0,1,118,270.53l13.85-10.34a5.7,5.7,0,0,1,6.82,9.15l-13.85,10.34A5.68,5.68,0,0,1,121.45,280.8Z" fill="#402111"/>
    <path d="M154.83,286.17a5.7,5.7,0,0,1-4.5-9.21l12.51-16.06a5.7,5.7,0,1,1,9,7L159.34,284A5.7,5.7,0,0,1,154.83,286.17Z" fill="#402111"/>
    <polygon points="292.43 142.99 325 153.67 294.12 169.08 292.43 142.99" fill="#402111"/>
    <path d="M179.76,105A4.07,4.07,0,0,1,179,97c9.61-1.85,19.88-10.86,27.48-24.08,9.39-16.35,12.6-35,8.18-47.6-2.27-6.47-12.62-13-19.51-13.75-10.85-1.24-19.41,2.77-27,12.6-5.75,7.49-8.51,17-8.45,29v2.81c0,8.91,0,23.81,4.15,29.6a4.07,4.07,0,0,1-6.62,4.76c-5.7-7.92-5.69-23.84-5.68-34.36V53.18c-0.07-13.9,3.25-25,10.13-34C171.06,7,182.28,1.87,196.07,3.45c8.5,1,22.61,8.72,26.27,19.15,5.17,14.7,1.71,36-8.81,54.35-8.89,15.48-20.91,25.69-33,28A4.12,4.12,0,0,1,179.76,105Z" fill="#402111"/>
    <path d="M116,75.16A4.09,4.09,0,0,1,114.8,75c-9.65-3-19.83-24-21.59-30a36.85,36.85,0,0,1,5.21-31.67C104.9,4.23,114.38-.47,125.09,0c12.53,0.6,25,8.54,31.79,20.23,3.35,5.78,1.92,10.74,2.31,15.14,0.2,2.24,1.81,4.22-.43,4.42a4.07,4.07,0,0,1-4.42-3.69C154,33,152.53,29,149.82,24.36,144.4,15,134.53,8.65,124.7,8.18,119.14,7.91,111.22,9.41,105,18a28.65,28.65,0,0,0-4,24.62c2.2,7.47,11.56,23.1,16.2,24.55A4.08,4.08,0,0,1,116,75.16Z" fill="#402111"/>
    <path d="M57.88,115.91a4.08,4.08,0,0,1-4-5c0.3-2.81-4.9-15.14-8.67-21.43A23.73,23.73,0,0,0,23.85,78.42c-6.21.3-15.64,4.36-15.7,9.81,0,2.2.83,2.54,1.78,2.71,3,0.54,7.36-1.66,8.26-4.14a4.07,4.07,0,1,1,7.65,2.8C23.39,96.32,14.65,100.07,8.47,99,3.19,98-.06,93.85,0,88.14,0.12,76.3,15.34,70.66,23.46,70.28a32,32,0,0,1,28.77,15c0.12,0.19,11.45,20.11,9.61,27.52A4.08,4.08,0,0,1,57.88,115.91Z" fill="#402111"/>
    <path d="M77.44,103.68a4.07,4.07,0,0,1-4.07-4.07c0-1.7,0-3.43,0-5.19,0.15-20,.31-40.72-17.5-51-3.73-2.15-12-3.89-16.88-1.83A5.14,5.14,0,0,0,35.7,45.2c-0.77,2.92.26,3.77,0.7,4.13,2.85,2.36,10.78,2.09,14.84.15a4.07,4.07,0,0,1,3.51,7.36C49,59.57,37.34,60.7,31.2,55.6c-2-1.7-5.2-5.57-3.37-12.49a13.21,13.21,0,0,1,8-9c8-3.35,18.92-.68,24.08,2.29C81.88,49,81.69,74.22,81.54,94.48c0,1.73,0,3.44,0,5.13A4.07,4.07,0,0,1,77.44,103.68Z" fill="#402111"/>
  </g>
</svg>
