<svg data-name="Layer 1" xmlns="http://www.w3.org/2000/svg" viewBox="0 0 325 343" preserveAspectRatio="xMinYMin meet">
<title>Marcus and Cara</title>
<g>
	<g>
		<path fill="#F7E992" d="M209.6,229.1c0,54-45.6,73-101.9,73S5.9,283.1,5.9,229.1s45.6-97.9,101.9-97.9S209.6,175,209.6,229.1z"/>
		<path fill="#C1972D" d="M214.8,229.4c0,0-0.1,2.3-0.2,6.7c-0.1,1.1,0,2.3-0.2,3.7c-0.2,1.5-0.4,3.1-0.7,4.8
			c-0.3,1.7-0.4,3.7-1,5.6c-0.5,1.9-1.1,3.9-1.7,6.1c-2.8,8.4-8,18.6-17.2,27.3c-9.1,8.8-21.7,15.9-35.9,20.2
			c-14.3,4.4-30.2,6.3-46.8,6.5l-3.1,0.1l-0.6,0l-0.4,0l-0.8,0l-1.5-0.1c-2-0.1-4.1-0.1-6.1-0.2c-4.2-0.2-8.7-0.6-13.1-1
			c-4.4-0.6-8.8-1-13.2-2c-2.2-0.5-4.5-0.8-6.7-1.3c-2.2-0.6-4.4-1.2-6.7-1.8c-8.9-2.8-17.9-6.2-26.2-11.5
			c-8.3-5.3-15.8-12.4-21.3-21l-2-3.3c-0.7-1.1-1.3-2.2-1.8-3.4c-1-2.3-2.1-4.7-3-7l-2-7.3c-0.7-2.4-0.8-4.9-1.2-7.4
			c-0.2-1.2-0.4-2.5-0.5-3.7L1,235.5l-0.1-3.7l0-1.8l0-1.2l0.1-0.9c0.4-4.7,0.6-9.2,1.7-14.3c0.7-5,2.3-9.6,3.7-14.3
			c0.8-2.3,1.8-4.5,2.7-6.8c0.5-1.1,0.9-2.2,1.4-3.3l1.7-3.2c4.3-8.7,10.2-16.4,16.7-23.2c6.4-7,14-12.6,21.8-17.5
			c4-2.2,8-4.6,12.2-6.2c4.1-2,8.4-3.3,12.6-4.7c2.1-0.8,4.3-1.1,6.4-1.7c2.2-0.4,4.3-1.1,6.4-1.4c4.3-0.5,8.6-1.4,12.9-1.3
			c2.1-0.1,4.3-0.2,6.4-0.2c2.1,0.1,4.2,0.2,6.3,0.3c4.1,0,8.2,0.8,12.3,1.4c16.1,2.6,30.6,8.8,42.5,16.7
			c12,7.9,21.4,17.5,28.2,27.1c1.6,2.5,3.4,4.7,4.7,7.2c1.3,2.4,2.6,4.8,3.8,7c1.9,4.8,4,9,5,13.2c0.6,2.1,1.2,4,1.7,5.8
			c0.4,1.9,0.7,3.6,1,5.3c0.3,1.6,0.6,3.2,0.8,4.6c0.2,1.4,0.2,2.7,0.4,3.8c0.4,4.6,0.6,7.1,0.6,7.1L214.8,229.4z M204.5,229.1
			c0,0-0.1-2.2-0.1-6.4c0-1,0-2.2-0.1-3.5c-0.2-1.3-0.3-2.6-0.5-4.1c-0.2-1.5-0.4-3.1-0.6-4.8c-0.4-1.7-0.8-3.5-1.3-5.4
			c-0.7-3.9-2.4-7.8-3.9-12.3c-1-2.1-2-4.4-3.1-6.7c-1-2.4-2.5-4.5-3.8-7c-5.7-9.4-13.8-19.1-24.9-27.3c-5.5-4.2-11.8-7.6-18.5-10.8
			c-3.4-1.4-7-2.7-10.6-3.9c-1.9-0.5-3.7-1-5.6-1.5c-1.9-0.5-3.8-1-5.7-1.2c-15.6-2.6-32.7-1.8-49.1,3.6c-4,1.5-8.2,2.8-12,4.9
			c-4,1.8-7.7,4.2-11.4,6.4c-1.9,1.1-3.6,2.6-5.4,3.9c-1.8,1.3-3.6,2.6-5.2,4.2l-4.9,4.5l-4.5,5c-5.7,6.8-10.8,14.3-14.3,22.5
			l-1.4,3c-0.4,1-0.7,2.1-1.1,3.2c-0.7,2.1-1.5,4.2-2.1,6.3c-1,4.3-2.2,8.7-2.5,13c-0.8,4.1-0.7,9-0.8,13.6l0,0.9c0-0.5,0,0,0-0.1
			l0,0.2l0,0.4l0.1,1.6l0.3,3.3l0.3,3.3l0.6,3.2c0.5,2.1,0.7,4.3,1.4,6.3l2.1,6c0.9,1.9,1.9,3.7,2.8,5.6c0.4,1,1,1.8,1.6,2.6
			l1.8,2.5c4.8,6.6,11.2,11.9,18.2,16c7.1,4.1,15,6.8,22.9,8.9c8,2,16.1,3.2,24.1,3.9c4,0.3,7.8,0.5,11.9,0.6c2.1,0,4.1,0,6.1,0.1
			l2.8,0l2.9-0.1c15.5-0.3,29.9-2,42.6-5.2c12.7-3.3,23.4-8.5,31.1-15c7.8-6.5,12.5-14.3,15.2-21.1c0.6-1.8,1.2-3.4,1.7-5
			c0.6-1.6,0.7-3.1,1-4.4c0.3-1.4,0.6-2.7,0.8-3.8c0.2-1.2,0.3-2.5,0.4-3.6c0.4-4.4,0.6-6.7,0.6-6.7L204.5,229.1z"/>
		<polygon fill="#C1972D" points="116.8,155.4 108.7,190.8 100.7,155.4 		"/>
		<circle fill="#774924" cx="108.7" cy="85.8" r="69.6"/>
		<path fill="#563621" d="M181.4,85.9c0,0-0.1,1.7-0.2,4.9c0,0.8,0,1.7-0.1,2.7c-0.1,1-0.3,2.2-0.5,3.4c-0.2,1.2-0.3,2.6-0.6,4
			c-0.3,1.4-0.7,2.8-1,4.3c-1.6,6-4.2,13.3-8.9,20.8c-4.7,7.4-11.3,15.1-20.3,21.3c-8.9,6.2-20.3,10.7-32.7,12.2
			c-1.5,0.2-3.1,0.2-4.7,0.3l-2.4,0.1l-1.2,0.1l-0.4,0l-0.1,0l-0.3,0l-0.6,0c-3-0.2-5.9-0.2-9.4-0.9c-6.8-0.9-13-3-19.3-5.7
			c-6.2-2.8-12-6.7-17.4-11.1c-5.3-4.6-9.9-10-13.8-15.9c-3.8-6-6.7-12.6-8.7-19.4c-1.9-7-2.7-13.9-2.8-21.3
			c0.3-6.6,1.3-14.2,3.5-20.8c2.3-6.7,5.3-13.1,9.3-18.8c4.1-5.6,8.7-10.8,13.9-15.1c5.3-4.2,11-7.8,17.1-10.4
			c12-5.3,25.1-6.7,36.9-5.5c12.1,1.4,22.8,5.7,31.7,11.3c8.8,5.7,15.6,12.9,20.5,20c5,7.1,7.7,14.2,9.5,20.1
			c0.4,1.5,0.8,2.9,1.2,4.3c0.3,1.3,0.5,2.6,0.7,3.8c0.4,2.4,0.8,4.4,0.8,6.1c0.2,3.3,0.3,5.1,0.3,5.1L181.4,85.9z M175.3,85.8
			c0,0-0.1-1.6-0.2-4.7c0-1.5-0.2-3.4-0.5-5.6c-0.2-1.1-0.3-2.3-0.5-3.6c-0.3-1.2-0.6-2.6-0.9-4c-1.5-5.5-3.8-12.2-8.1-19
			c-4.3-6.8-10.4-13.8-18.6-19.5c-8.2-5.7-18.6-9.8-29.9-11.2c-1.4-0.2-2.9-0.2-4.4-0.3c-1.4,0-3.1-0.3-4.4-0.1
			c-2.9,0.2-5.9,0.2-8.9,0.8c-6,0.8-11.9,2.7-17.6,5.2c-5.7,2.5-11,6.1-15.9,10.2c-4.9,4.2-9.1,9.2-12.6,14.6
			c-3.5,5.5-6.1,11.5-8,17.8c-1.8,6.4-2.4,12.5-2.5,19.6c0.3,6.2,1.3,12.9,3.2,19c2.1,6.1,4.9,11.9,8.5,17.2
			c3.7,5.2,8,9.8,12.8,13.8c4.9,3.8,10.1,7.1,15.6,9.4c5.5,2.3,11.3,4.1,16.8,4.7c2.6,0.5,5.8,0.5,8.8,0.7c1.1,0.1,2.7-0.1,4-0.1
			c1.4-0.1,2.8-0.1,4.1-0.3c10.9-1.3,20.8-5.2,28.9-10.3c8.1-5.2,14.3-11.8,18.8-18.2c4.6-6.4,7.1-13,8.7-18.4
			c0.4-1.4,0.7-2.7,1.1-3.9c0.3-1.2,0.4-2.4,0.6-3.4c0.2-1.1,0.4-2.1,0.5-3c0.2-0.9,0.2-1.9,0.2-2.6c0.2-3.2,0.3-4.9,0.3-4.9
			L175.3,85.8z"/>
		<path fill="#231F20" d="M106.4,135.9c-1.7,0-3.1-1.4-3.1-3.1c0-1.7,1.4-3.1,3.1-3.1c10.4,0,13.2-1.2,16-6.6
			c0.8-1.5,2.6-2.1,4.1-1.3c1.5,0.8,2.1,2.6,1.3,4.1C123.1,135.2,116,135.9,106.4,135.9z"/>
		<path fill="#06539D" d="M108.7,4.2c-29,0-54,15.9-66,38.9C19.8,47.4,3.5,57.1,3.5,62.3c0,6.8,10.6,21.6,35.6,23.4
			c0,0-0.3-8.8,2.2-15.8c8.1-6.3,26.6-16.6,67.4-16.6c65.3,0,73.5,26.4,73.5,20.5C182.2,35.4,149.3,4.2,108.7,4.2z"/>
		<path fill="#0A375B" d="M182.8,48.4c-3.2-8.1-7.8-15.5-13.5-22c-11.4-12.9-27.2-21.6-43.9-24.9c-4.2-0.8-8.4-1.3-12.6-1.5l-3.2,0
			l-0.8,0l-0.9,0l-1.5,0.1l-3,0.1l-3.2,0.3C95.9,1,91.8,1.9,87.7,3c-2,0.5-4,1.3-6,1.9c-1.9,0.8-3.9,1.5-5.8,2.4
			c-1.9,0.9-3.8,1.8-5.6,2.9l-2.7,1.6l-2.6,1.8c-3.5,2.3-6.8,5-9.9,7.9c-3,3-5.9,6-8.4,9.5c-2.6,3.3-4.7,6.9-6.6,10.6
			c-0.9,0.1-1.8,0.2-2.7,0.4c-2.4,0.3-5,0.9-7.4,1.4c-5,1-9.9,2.5-14.5,4.6c-2.3,1-4.6,2.2-6.7,3.7c-2.1,1.4-4.2,3-6,5.1
			c-0.9,1.1-1.9,2.3-2.4,4.5L0,62l0,0.2l0,0.1l0,0.4l0,0.2l0,0.8c0,0.6,0.3,1.6,0.4,2.3c0.8,2.8,2,5,3.4,7c2.8,4,6.2,7,9.6,9.3
			c3.4,2.3,6.8,4,9.9,5.2c1.5,0.7,3,1.1,4.4,1.5c1.4,0.5,2.6,0.7,3.8,1c2.3,0.6,4.1,0.8,5.3,1c1.2,0.2,1.9,0.3,1.9,0.3l0.8-11.3
			c0,0-0.6,0-1.6-0.1c-1.1-0.1-2.6-0.1-4.5-0.4c-1-0.1-2.1-0.2-3.2-0.5c-1.2-0.2-2.4-0.5-3.7-0.9c-2.6-0.7-5.5-1.8-8.3-3.4
			c-2.8-1.6-5.7-3.8-8-6.5C9,67.1,8,65.4,7.5,64c-0.1-0.3-0.2-0.4-0.3-1L7,62.2l0,0l0.1-0.4c0.2-0.3,0.3-0.7,0.6-1
			c1-1.5,2.6-3,4.3-4.3c1.7-1.4,3.6-2.6,5.6-3.7c4-2.2,8.4-4.1,13-5.3c2.3-0.6,4.6-0.9,7-1.2c2.3-0.3,4.8-0.4,7.1-0.4
			c4.8-0.1,9.5-0.1,14,0.2c7.1,0.5,13.8,1.2,19.8,2.2c-0.5,0.1-0.9,0.2-1.4,0.3l-4.6,1.2l-4.6,1.5c-3,1.2-6,2.3-8.9,3.8
			c-1.5,0.7-7.1,3.9-8.5,4.9C43,65.8,38.5,72.3,38.5,72.3l12,2.3l3.5-2.8c1.2-1,2.2-1.5,3.3-2.4c1-0.8,2.3-1.5,3.5-2.2
			c1.2-0.7,2.4-1.4,3.6-2c2.5-1.3,5-2.3,7.6-3.3l4-1.3l4.1-1.1c2.7-0.6,5.5-1.2,8.3-1.6c2.8-0.5,5.6-0.7,8.5-0.9
			c2.8-0.2,5.7-0.2,8.6-0.2c2.9,0.1,5.7,0.2,8.6,0.4c11.5,0.9,23,3.2,34.1,6.6c5.5,1.7,11,3.7,16.2,6.1c2.6,1.1,5.2,2.4,7.6,3.8
			c2.4,1.3,4.8,2.9,6.3,4.3l0.2,0.2c1,0.9,2.4,1.5,3.8,1.4c3.1,0,5.5-2.6,5.5-5.7C187.7,65.1,186,56.5,182.8,48.4z M7,61.6L7,61.6
			L7,62l0,0l0-0.3C7,61.8,7,61.6,7,61.6z M7,62.3C7,62.3,7,62.3,7,62.3l0-0.1L7,62.3z M169,59.6c-5.7-2.6-11.6-4.7-17.5-6.6
			c-5.9-1.8-12-3.4-18-4.6c-3-0.6-6.1-1.1-9.2-1.5c-3.1-0.5-6.2-0.8-9.3-1c-3.1-0.3-6.2-0.4-9.4-0.4c-2,0-4.1,0-6.1,0.1
			c-1.4-0.4-3-0.8-4.7-1.3c-3-0.7-6.4-1.4-10.1-2c-7.5-1.1-16.2-1.8-25.5-1.8c-3.6,0-7.4,0.1-11.2,0.3c1.2-2,2.5-4,4-5.8
			c2.3-3.1,5-5.8,7.8-8.4c2.9-2.5,5.9-4.9,9.1-6.9l2.4-1.5l2.5-1.4c1.6-1,3.4-1.7,5.1-2.5c1.7-0.8,3.6-1.4,5.3-2.1
			c1.8-0.5,3.6-1.2,5.5-1.6c3.7-0.9,7.5-1.6,11.2-1.9l2.8-0.2l3-0.1l1.5,0c0.2,0,0.7,0,0.6,0l0.7,0l2.8,0.1
			c3.8,0.3,7.6,0.8,11.3,1.6c14.8,3.2,28.4,11.3,38.1,22.8c4.8,5.7,8.6,12.2,11.2,19.2c1.3,3.5,2.2,7.1,2.8,10.7
			C173.5,61.7,171.3,60.6,169,59.6z"/>
		<g>
			<path fill="#FFFFFF" d="M94.9,108.7H44.1c-2.8,0-5-2.2-5-5l0-29.9c0-2.8,2.2-5,5-5h50.8c2.8,0,5,2.2,5,5v29.9
				C99.9,106.5,97.6,108.7,94.9,108.7z"/>
			<circle fill="#774924" cx="69.5" cy="82.8" r="13.9"/>
			<circle fill="#231F20" cx="69.5" cy="82.8" r="10.5"/>
			<path fill="#FFFFFF" d="M170,108.7h-50.8c-2.8,0-5-2.2-5-5V73.8c0-2.8,2.2-5,5-5H170c2.8,0,5,2.2,5,5v29.9
				C175,106.5,172.8,108.7,170,108.7z"/>
			<circle fill="#774924" cx="144.8" cy="82.8" r="13.9"/>
			<circle fill="#231F20" cx="144.6" cy="82.8" r="10.5"/>
			<circle fill="#FFFFFF" cx="74.7" cy="77.6" r="5.2"/>
			<circle fill="#FFFFFF" cx="150" cy="77.6" r="5.2"/>
			<path fill="#231F20" d="M159.7,65h-30.1c-11,0-20,9-20,18h-5.1c0-9-9-18-20-18H54.5c-11,0-20.9,8.2-20.9,19.2v9.2
				c0,11,9.9,20.7,20.9,20.7h30.1c11,0,20-9,20-22h5.1c0,13,9,22,20,22h30.1c11,0,20.9-9.6,20.9-20.7v-9.2
				C180.5,73.2,170.7,65,159.7,65z M94.5,94.2c0,5.9-4.8,10.8-10.8,10.8H53.3c-5.9,0-10.8-4.8-10.8-10.8v-9.5
				c0-5.9,4.8-10.8,10.8-10.8h30.5c5.9,0,10.8,4.8,10.8,10.8V94.2z M171.5,94.2c0,5.9-4.8,10.8-10.8,10.8h-30.5
				c-5.9,0-10.8-4.8-10.8-10.8v-9.5c0-5.9,4.8-10.8,10.8-10.8h30.5c5.9,0,10.8,4.8,10.8,10.8V94.2z"/>
		</g>
	</g>
	<g>
		<path fill="#563621" d="M299.4,109.1c-5.6-5.2-13.2-7.6-19.9-11c-7.6-3.8-12-10.9-19.4-14.7c-7-3.5-15.3-3-22.8-0.8
			c-3.4,1-6.7,2.3-10.2,2.7c-4.7,0.5-9.4-0.7-14.1-1c-12.4-0.9-25.5,4.8-31.7,15.5c-1.9,3.2-3.1,6.7-5.1,9.9
			c-4.9,7.9-15.1,11.4-20.6,19.3c-4.6,6.6-6.7,15.2-4.2,22.8c1.4,4.2,4.2,8.1,4.2,12.5c0.1,8.4-9.4,13.6-12.5,21.4
			c-0.8,2-1.1,4.3-0.4,6.4c1.2,3.1,4.4,4.7,7.2,6.4c2.8,1.7,5.6,4.6,5,7.8c-0.5,2.7-3.1,4.3-5.1,6.1c-12.6,11.1-7,32.1,0.1,44.8
			c1.4,2.5,3,4.9,5,7c2.1,2.2,4.7,3.9,7.3,5.5c6.1,3.6,12.7,6.2,19.6,7.8c6.8,1.6,14.1,0.9,20.7,3c14.4,4.6,28.8,6.2,44,5.8
			c12-0.3,24-1.7,35.3-5.7c11.3-4.1,21.7-11.1,28.4-21c6.7-9.9,9.2-23,5-34.2c-1.3-3.6-3.3-7-3.9-10.9c-0.9-5.9,1.4-12.2,4.5-17
			c2.7-4.3,5.9-7.5,5-13.1c-1.5-9.5-13.9-13.9-16-23.3c-2.1-9.3,3.5-20.3,3.3-29.9c-0.2-7.3-2.2-14.8-7.1-20.2
			C300.5,110.2,300,109.6,299.4,109.1z"/>
		<path fill="#3F2307" d="M297.9,110.9c0,0-0.1-0.1-0.4-0.3c-0.2-0.2-0.6-0.6-1-0.9c-0.8-0.7-2.2-1.7-4.2-2.9
			c-2-1.2-4.5-2.4-7.7-3.8c-3.1-1.5-7-2.9-10.9-6c-3.8-2.9-7.1-6.7-11.2-9.6c-4-3.1-9.2-4.6-15.1-4.3c-2.9,0.1-6,0.7-9,1.6
			c-3,0.9-6.3,2.2-10.1,2.8c-3.9,0.6-7.7,0-11.3-0.4c-3.6-0.5-7.1-0.7-10.7-0.2c-7.1,1-14.4,4.1-19.6,9.8c-2.7,2.8-4.3,6.2-6.2,10.2
			c-0.5,1-1,2-1.5,3l-0.4,0.8l-0.3,0.5l-0.2,0.3c-0.3,0.5-0.6,0.9-1,1.4c-1.6,2-3.2,3.6-5,5.1c-3.5,2.9-7.3,5.3-10.5,8.2
			c-1.6,1.4-3,3-4.1,4.7c-1.2,1.8-2.2,3.6-2.9,5.7c-1.5,4-2.1,8.4-1.3,12.5c0.4,2.1,1.2,4,2.3,6.2c1,2.2,2.1,4.5,2.5,7.4
			c0.1,0.7,0.2,1.3,0.1,2.3c-0.1,0.6,0,1.1-0.2,2c-0.3,1.6-0.8,2.8-1.4,4.1c-1.2,2.5-2.9,4.5-4.5,6.4c-3.2,3.7-6.5,7.4-7.2,11.3
			c-0.3,2,0.2,3.4,1.6,4.8c1.5,1.4,3.6,2.4,5.9,4c1.2,0.8,2.2,1.8,3.2,3c0.9,1.2,1.7,2.8,1.9,4.7c0.1,0.9-0.1,1.9-0.4,2.6
			c-0.3,1-0.8,1.7-1.2,2.3c-1,1.3-2.1,2.2-3.1,3c-7.7,5.6-9.2,16.1-7.2,25.6c0.9,4.8,2.6,9.5,4.7,14c2.2,4.5,4.7,8.8,8.3,11.7
			c7.6,5.8,17.3,9.8,26.8,11.4c4.8,0.7,10,0.5,15.4,1.6c2.8,0.6,5.1,1.5,7.5,2c2.4,0.6,4.8,1.2,7.2,1.6c4.8,0.9,9.7,1.5,14.6,1.9
			c4.9,0.4,9.8,0.4,14.6-0.5c4.9-0.9,9.5-2.2,14.1-3c4.6-0.9,9.1-1.3,13.5-2c8.8-1.3,17.9-3.1,25.5-7.9c7.5-4.8,13-12.3,15.4-20.3
			c2.4-8.1,1.7-16.5-1.4-23.2c-0.7-1.7-1.7-3.5-2.6-5.6c-0.8-2-1.6-4.6-1.8-6.8c-0.5-5.2,0.9-9.5,2.7-13.5c1.7-3.9,4.6-7.4,6-9.9
			c0.7-1.3,1.1-2.4,1.2-3.5c0-0.3,0-0.6,0-0.9c0-0.1,0-0.3,0-0.4l0-0.2l0-0.1c0,0.1-0.1-0.4,0,0.2c-0.2-0.8-0.4-1.9-0.6-2.1
			c-0.3-0.9-1.1-2.3-1.9-3.4c-0.9-1.2-1.9-2.3-3.1-3.5c-2.2-2.3-4.7-4.6-6.8-7.6c-1.1-1.5-1.9-3.2-2.6-4.9l-0.4-1.4
			c-0.1-0.3-0.1-0.3-0.2-0.8l-0.1-0.6l-0.2-1.1l-0.1-1.4c-0.2-3.5,0.3-6.4,0.8-9.2c1.1-5.5,2.6-10.2,3.1-14.3
			c0.9-8.2-1.2-14.9-3.3-18.5c-1-1.9-2.2-3.2-2.8-3.9c-0.9-0.9-1.3-1.4-1.3-1.4L297.9,110.9z M301.1,107.4c0,0,0.5,0.4,1.3,1.3
			c1.1,1.1,2.3,2.6,3.7,4.8c2.7,4.5,5.4,11.9,4.6,21.7c-0.4,4.8-1.7,9.7-2.5,14.8c-0.7,5.1-1.1,10.3,2.2,14.2
			c1.6,2.1,3.9,4.1,6.3,6.5c1.2,1.2,2.5,2.5,3.8,4c1.3,1.5,2.4,3.1,3.4,5.5c0.6,1.4,0.6,2,0.9,2.9c0.1,0.6,0.1,0.3,0.1,0.5l0,0.2
			l0.1,0.4c0,0.3,0.1,0.6,0.1,0.9c0,0.6,0,1.2,0,1.8c-0.1,2.5-1,4.9-2.1,6.8c-2.3,3.8-4.3,6.2-5.6,9.4c-1.4,3-2.1,6.5-2,9.3
			c0.1,3.2,1.7,6.3,3.2,10.7c2.9,8.8,2,18.6-1.4,27.1c-0.9,2.2-1.9,4.2-3,6.3c-0.6,1-1.2,2.1-1.8,3c-0.6,0.9-1.3,2-2,2.9
			c-2.8,3.8-6.2,7.2-9.7,10.4c-7.1,6.5-15.7,12.5-25.5,15.7c-4.9,1.6-10,2.7-15.1,2.9c-5.1,0.2-10.3-0.6-15.3-1.3
			c-5.1-0.8-10.1-1-15.2-1.5c-5.1-0.5-10.2-1.3-15.2-2.4c-2.5-0.5-5-1.2-7.5-1.9c-2.5-0.7-5-1.6-7.1-2.2c-4.6-1.1-9.7-1.1-15-1.9
			c-5.4-0.9-10.3-2.5-15.2-4.6c-4.9-2.2-9.5-4.6-13.8-8.1c-4.4-3.6-7.1-8.5-9.4-13.2c-2.3-4.8-4.1-9.8-5.1-15
			c-1-5.2-1.3-10.7,0-16.1c0.6-2.7,1.7-5.3,3.2-7.7c0.9-1.1,1.7-2.6,2.6-3.3l1.3-1.4c0.7-0.7,1.1-0.9,1.6-1.4c1-0.8,1.8-1.5,2.4-2.2
			c0.3-0.3,0.5-0.8,0.6-1c0.2-0.5,0.2-0.7,0.2-1.1c0-1.3-1.5-3.1-3.2-4.3c-1.8-1.3-4.2-2.4-6.4-4.4c-0.5-0.5-1.1-1.1-1.5-1.8
			c-0.2-0.3-0.5-0.7-0.7-1.1l-0.2-0.4l-0.1-0.3l-0.1-0.3c-0.5-1.6-0.5-3.2-0.3-4.7c1.2-6,5.2-9.8,8.1-13.5c1.5-1.8,3-3.6,3.9-5.5
			c0.4-0.9,0.8-2,0.9-2.7c0.1-0.3,0.1-1.1,0.2-1.6c0-0.3,0-0.9-0.1-1.3c-0.5-3.9-3.7-8.1-4.7-13.3c-1.1-5.1-0.3-10.4,1.4-15
			c0.9-2.3,2.1-4.6,3.4-6.6c1.4-2.1,3.1-3.9,4.9-5.5c3.6-3.2,7.4-5.6,10.6-8.3c1.6-1.3,3.1-2.8,4.2-4.2c0.3-0.3,0.6-0.9,0.9-1.3
			l0.2-0.3c0,0.1,0.1-0.2,0.1-0.2l0.4-0.6c0.5-0.9,1-1.8,1.4-2.7c0.9-1.9,1.8-3.9,2.9-5.8c1.2-1.9,2.5-3.8,4-5.4
			c6.1-6.6,14.4-10.2,22.4-11.2c4.1-0.5,8.2-0.3,11.8,0.3c3.7,0.5,7,1,10.1,0.5c3.1-0.5,6.2-1.7,9.6-2.7c3.3-1,6.7-1.6,10-1.7
			c3.3-0.2,6.6,0.2,9.7,1c3.2,0.9,5.8,2.4,8.2,4.1c4.7,3.4,8,7.1,11.4,9.6c3.2,2.5,7,3.9,10.1,5.3c3.2,1.4,6,2.7,8.2,4
			c2.2,1.3,3.8,2.4,4.9,3.3c0.6,0.4,0.9,0.7,1.1,0.9c0.2,0.2,0.4,0.3,0.4,0.3L301.1,107.4z"/>
		<path fill="#06539D" d="M316.5,275.2c0,45.6-38.4,61.5-85.9,61.5s-85.9-15.9-85.9-61.5s38.4-82.5,85.9-82.5
			S316.5,229.6,316.5,275.2z"/>
		<path fill="#0A375B" d="M320.6,275.4c0,0-0.1,2-0.2,5.7c-0.1,0.9,0,1.9-0.2,3.1c-0.2,1.2-0.4,2.6-0.6,4c-0.3,1.4-0.4,3.1-0.8,4.7
			c-0.5,1.6-0.9,3.3-1.4,5.1c-2.4,7-6.7,15.5-14.5,22.8c-7.6,7.3-18.2,13.1-30.1,16.7c-12,3.7-25.3,5.2-39.3,5.4l-2.6,0.1l-2.7-0.1
			c-1.7-0.1-3.4-0.1-5.2-0.2c-3.5-0.2-7.3-0.5-11-0.8c-3.7-0.5-7.4-0.8-11.1-1.7c-1.9-0.4-3.7-0.7-5.6-1.1c-1.9-0.5-3.7-1-5.6-1.5
			c-7.4-2.3-15-5.1-22-9.6c-7-4.4-13.3-10.3-17.9-17.5c-1-1.9-2.4-3.6-3.2-5.6c-0.8-2-1.7-3.9-2.5-5.9l-1.7-6.1
			c-0.6-2-0.7-4.1-1.1-6.2l-0.4-3.1l-0.1-3.1l-0.1-3.1l0-1.6l0-1l0.1-0.7c0.3-3.9,0.4-7.8,1.4-12c0.6-4.2,1.9-8.1,3-12
			c0.7-1.9,1.5-3.8,2.3-5.7l1.2-2.8l1.4-2.7c3.6-7.3,8.6-13.8,14-19.6c5.4-5.9,11.8-10.7,18.3-14.8c3.4-1.9,6.7-3.9,10.3-5.3
			c3.4-1.7,7.1-2.8,10.6-4c14.4-4.4,29.3-4.7,42.8-2.5c13.6,2.2,25.8,7.5,35.9,14.1c10,6.7,17.9,14.9,23.6,23c2.9,4,5.1,8.2,7.1,12
			c1.6,4,3.3,7.6,4.2,11.1c0.5,1.7,1,3.4,1.4,4.9c0.3,1.6,0.6,3.1,0.8,4.4c0.3,1.4,0.5,2.7,0.7,3.8c0.2,1.2,0.2,2.3,0.3,3.2
			c0.3,3.9,0.4,5.9,0.4,5.9L320.6,275.4z M312.4,275.2c0,0-0.1-1.9-0.1-5.4c0-0.9,0-1.9-0.1-2.9c-0.1-1.1-0.3-2.2-0.5-3.5
			c-0.2-1.3-0.3-2.6-0.5-4.1c-0.3-1.4-0.7-2.9-1.1-4.5c-0.6-3.3-2.1-6.6-3.3-10.4c-0.8-1.8-1.7-3.7-2.6-5.6c-0.8-2-2.2-3.8-3.3-5.8
			c-4.8-7.9-11.8-16-21.1-22.8c-4.6-3.5-9.9-6.4-15.6-9c-2.9-1.2-5.9-2.2-8.9-3.3c-1.6-0.4-3.1-0.8-4.7-1.2c-1.6-0.4-3.2-0.8-4.8-1
			c-13.1-2.2-27.5-1.6-41.3,3c-3.4,1.3-6.9,2.3-10.1,4.1c-3.4,1.5-6.5,3.5-9.6,5.4c-1.6,0.9-3,2.2-4.5,3.2c-1.5,1.1-3,2.2-4.4,3.5
			l-4.2,3.8l-3.8,4.2c-4.8,5.7-9.2,12-12.2,18.9l-1.2,2.6l-0.9,2.7c-0.6,1.8-1.3,3.5-1.8,5.3c-0.9,3.7-1.9,7.3-2.2,10.9
			c-0.7,3.5-0.6,7.6-0.7,11.5c0,1.5,0.3,3.6,0.4,5.4l0.2,2.8l0.5,2.7c0.4,1.8,0.6,3.6,1.2,5.3l1.7,5.1c0.7,1.6,1.6,3.2,2.3,4.8
			c0.7,1.6,1.9,2.9,2.8,4.4c4.1,5.7,9.5,10.2,15.4,13.7c6,3.5,12.7,5.8,19.4,7.6c6.7,1.8,13.6,2.7,20.4,3.4c3.4,0.2,6.6,0.5,10,0.6
			c1.7,0,3.5,0,5.2,0.1l2.4,0l2.5-0.1c13.1-0.2,25.3-1.7,36.1-4.4c10.7-2.8,19.8-7.4,26.4-13c6.6-5.6,10.6-12.2,12.8-18
			c0.5-1.5,1-2.9,1.4-4.2c0.5-1.3,0.6-2.6,0.9-3.8c0.2-1.2,0.5-2.3,0.7-3.3c0.2-1,0.2-2.1,0.3-3c0.3-3.7,0.4-5.6,0.4-5.6
			L312.4,275.2z"/>
		<circle fill="#FCD29A" cx="230.6" cy="164.5" r="57.9"/>
		<path fill="#B2824D" d="M291,164.7c0,0-0.1,1.4-0.1,4.1c0,1.3-0.2,3-0.5,5.1c-0.2,1-0.3,2.1-0.5,3.3c-0.3,1.1-0.6,2.3-0.9,3.6
			c-1.3,5-3.5,11.1-7.5,17.2c-3.9,6.1-9.5,12.4-16.9,17.5c-7.4,5.1-16.8,8.8-27,10c-1.3,0.2-2.6,0.2-3.9,0.3c-1.4,0-2.5,0.2-4.1,0.1
			c-2.5-0.2-4.9-0.2-7.8-0.7c-5.6-0.7-10.7-2.5-15.9-4.7c-5.2-2.3-9.9-5.5-14.4-9.1c-4.4-3.8-8.2-8.2-11.5-13.1
			c-3.2-4.9-5.6-10.4-7.3-16.1c-1.6-5.8-2.3-11.5-2.4-17.7c0.2-5.5,1-11.8,2.8-17.3c1.9-5.6,4.4-10.9,7.6-15.7
			c3.4-4.7,7.2-9,11.5-12.6c4.4-3.5,9.2-6.6,14.2-8.7c10-4.4,21-5.6,30.8-4.6c10.1,1.2,19.1,4.8,26.5,9.5c7.3,4.8,12.9,10.8,17,16.8
			c4.1,5.9,6.4,11.8,7.8,16.8c0.3,1.2,0.7,2.4,1,3.5c0.3,1.1,0.4,2.2,0.6,3.2c0.4,2,0.6,3.7,0.6,5.1c0.2,2.8,0.3,4.2,0.3,4.2
			L291,164.7z M286.1,164.5c0,0,0-1.4-0.1-3.9c0-1.3-0.2-2.8-0.5-4.7c-0.1-0.9-0.2-1.9-0.4-3c-0.3-1-0.5-2.1-0.8-3.3
			c-1.2-4.6-3.2-10.2-6.9-15.8c-3.6-5.6-8.7-11.4-15.5-16.1c-6.8-4.7-15.5-8.1-24.8-9.2c-2.3-0.2-5-0.4-7.3-0.4
			c-2.4,0.2-4.9,0.2-7.4,0.7c-5,0.6-9.8,2.3-14.6,4.3c-4.7,2.1-9.1,5-13.3,8.4c-4,3.5-7.6,7.6-10.6,12.1c-2.9,4.6-5.1,9.6-6.7,14.8
			c-1.5,5.3-2.1,10.4-2.2,16.3c0.2,5.2,1,10.8,2.6,15.9c1.7,5.1,4,10,7,14.4c3.1,4.3,6.6,8.3,10.6,11.6c4.1,3.2,8.4,6,13.1,8
			c4.6,1.9,9.5,3.4,14.1,4c2.2,0.5,4.9,0.4,7.4,0.6c2.1,0,4.6-0.1,6.9-0.3c9.2-1.1,17.4-4.4,24.2-8.7c6.8-4.4,11.9-10,15.6-15.4
			c3.8-5.4,5.9-10.9,7.2-15.4c0.3-1.1,0.6-2.2,0.9-3.2c0.2-1,0.3-2,0.5-2.9c0.3-1.8,0.6-3.3,0.6-4.7c0.2-2.7,0.3-4.1,0.3-4.1
			L286.1,164.5z"/>
		<g>
			<path fill="#FFFFFF" d="M219.6,179.5h-40.5c-2.8,0-5-2.2-5-5v-27.5c0-2.8,2.2-5,5-5h40.5c2.8,0,5,2.2,5,5v27.5
				C224.6,177.2,222.4,179.5,219.6,179.5z"/>
			<circle fill="#858E2E" cx="199.7" cy="154.5" r="12.9"/>
			<circle fill="#231F20" cx="199.7" cy="154.5" r="9.7"/>
			<circle fill="#FFFFFF" cx="204.5" cy="149.7" r="4.8"/>
			<path fill="#FFFFFF" d="M282.1,179.5h-40.5c-2.8,0-5-2.2-5-5v-27.5c0-2.8,2.2-5,5-5h40.5c2.8,0,5,2.2,5,5v27.5
				C287.1,177.2,284.8,179.5,282.1,179.5z"/>
			<circle fill="#858E2E" cx="261.5" cy="154.5" r="12.9"/>
			<circle fill="#231F20" cx="261.5" cy="154.5" r="9.7"/>
			<circle fill="#FFFFFF" cx="266.7" cy="149.7" r="4.8"/>
			<path fill="#06539D" d="M271.7,138h-19.8c-10.6,0-19.3,6-19.9,19h-2.8c-0.6-13-9.3-19-19.9-19h-19.8c-11,0-21,8.3-21,19.3v6.8
				c0,11,9.9,19.9,21,19.9h19.8c10.6,0,19.3-9,19.9-18h2.8c0.6,9,9.3,18,19.9,18h19.8c11,0,19.8-8.9,19.8-19.9v-6.8
				C291.5,146.3,282.7,138,271.7,138z M217.5,165.2c0,5.9-4.8,10.8-10.8,10.8h-18.5c-5.9,0-10.8-4.8-10.8-10.8v-6.5
				c0-5.9,4.8-10.8,10.8-10.8h18.5c5.9,0,10.8,4.8,10.8,10.8V165.2z M281.5,165.2c0,5.9-4.8,10.8-10.8,10.8h-18.5
				c-5.9,0-10.8-4.8-10.8-10.8v-6.5c0-5.9,4.8-10.8,10.8-10.8h18.5c5.9,0,10.8,4.8,10.8,10.8V165.2z"/>
		</g>
		<path fill="#231F20" d="M232.2,206.5c-7.9,0-14.3-6.4-14.3-14.3c0-1.7,1.4-3.1,3.1-3.1c1.7,0,3.1,1.4,3.1,3.1
			c0,4.5,3.7,8.2,8.2,8.2c4.5,0,8.2-3.7,8.2-8.2c0-1.7,1.4-3.1,3.1-3.1c1.7,0,3.1,1.4,3.1,3.1C246.5,200.1,240.1,206.5,232.2,206.5z
			"/>
		<path fill="#563621" d="M221.3,135.7C227.8,135.6,211.6,135.9,221.3,135.7c5.7-0.1,12.1-3.7,17.6-1c5.5,2.8,4.8,9.1,8.5,13.3
			c4.5,5.2,10.4,2.4,16.1,4.6c5.5,2,12.6,0.8,14.4,6.1c4.1,12-8,29.7,1.8,39.4c3.9,3.9,7.7,5.3,6.7,11.8c-1,7-21.4,24.8-28,27.6
			c36.9,3.8,41.9-25.3,45.2-39.3c3.9-17.2-2.3-34.4-6.1-51c-10.2-44.3-42-49.3-70.7-49.2c-31.9,0.1-61.8,26.5-64.4,59
			c-1.5,18.2,5.9,36.8,2.4,54.4c-1.4,6.9-0.6,14.9,5.4,19.6c5.5,4.4,14.1,3.4,18.7,9.2c4.1,5.1,2.9,13.3,7.2,18.9
			c4.8,6.4,13.9,9.1,21.4,6.4c-0.7,0.2-6.2-2.4-6.9-3.2c-2.1-2.2-2-6.1-2-8.8c1.8-8.5,7.9-13.7,2.2-22.7c-5.7-9-21-5.9-23.1-18
			c-1.8-10.2,4.4-21.3-0.1-30.7c-1.3-2.7-3.4-5-4.9-7.5c-3.2-5.2-0.8-9.3-0.4-14.8c0.8-9,2.4-16.9,7-24.7c3.1-5.2,9-18.2,15.6-18.9
			C202.3,125.8,211.6,135.9,221.3,135.7z"/>
		<path fill="#3F2307" d="M203.4,105.6c0,0,0,0.5,0.1,1.5c0.1,1,0.3,2.3,0.7,4c0.8,3.4,2.5,8.1,6.1,12.5c1.7,2.2,4.1,4.2,6.5,5.8
			c2.6,1.6,4.5,1.7,7.8,0.8c1.7-0.4,3.7-0.9,5.9-1.3c2.2-0.3,4.8-0.6,7.9,0.4c1.5,0.6,3.1,1.4,4.3,2.7c0.6,0.6,1.1,1.2,1.5,1.9
			c0.5,0.7,0.9,1.4,1.1,2.2c0.5,1.5,0.7,2.7,0.9,3.4l0.1,0.3l0,0.1l0,0.1l0,0c0.1,0.2-0.1-0.3-0.1-0.2l0.3,0.7
			c0.2,0.6,0.3,0.5,0.4,0.7c1.1,1.9,4,3.6,7.3,4.7c3.4,1.1,7.1,2.1,10.6,2.5c3.5,0.5,6.9,0.6,9.8,0.1c2.9-0.5,5.2-1.6,6.6-3.4
			c0.7-0.9,1.1-2,1.5-3.1c0.1-0.3,0.2-0.5,0.2-0.8c0-0.2,0.1-0.5,0.1-0.7c0-0.5,0-1.1-0.1-1.6c-0.3-2.1-1.1-3.5-2.6-3.5
			c-1.5-0.1-2.7,0.6-2.6,1.4c0,0.9,0.4,1.3,0.4,1.3c0,0-0.5-0.2-0.9-1.3c-0.2-0.5-0.1-1.4,0.5-2c0.6-0.7,1.4-1.1,2.5-1.3
			c0.6-0.1,1-0.2,1.8,0c0.5,0.1,1.4,0.5,1.9,0.9c1.1,0.9,1.8,2.2,2.4,3.5c0.3,0.7,0.5,1.4,0.6,2.2c0.1,0.4,0.1,0.8,0.2,1.3
			c0,0.4,0,0.9,0,1.2c-0.1,1.6-0.4,3.4-1.3,5.2c-0.8,1.8-2.3,3.4-3.9,4.6c-1.7,1.2-3.6,2.1-5.5,2.7c-3.9,1.2-8,1.6-12.2,1.3
			c-4.2-0.2-8.3-0.9-12.6-2.1c-2.1-0.7-4.4-1.5-6.6-2.8c-2.2-1.3-4.4-3.1-6-5.7c-1.7-2.7-2-5.9-2.3-6.6c0-0.2-0.1-0.3-0.3-0.5
			c-0.1-0.2-0.2-0.4-0.3-0.5c-0.2-0.3-0.4-0.4-0.8-0.6c-0.7-0.3-2.2-0.4-3.9-0.3c-1.7,0.1-3.5,0.5-5.6,0.8c-1,0.1-2,0.3-3.4,0.3
			c-0.9,0-2.5,0-3.7-0.4c-2.5-0.7-4.5-1.9-6.1-3.2c-3.2-2.6-5.4-5.5-7-8.5c-3.2-5.9-3.7-11.6-3.5-15.2c0.1-1.9,0.4-3.3,0.6-4.2
			C203.2,106.1,203.4,105.6,203.4,105.6z"/>
		<path fill="#3F2307" d="M268,149.6c0,0,0.4-0.1,1.3,0c0.8,0.1,2.1,0.3,3.6,1c1.5,0.7,3.2,1.8,4.7,3.6c0.8,0.9,1.5,1.9,2.2,3.1
			c0.6,1.2,1.1,2.2,1.7,3.5c1.2,2.5,2.1,5.8,1.9,9.4c-0.1,1.8-0.2,3.5-1,5.6c-0.7,1.9-1.5,3.3-2.3,4.7c-0.7,1.4-1.4,2.7-1.7,3.7
			c-0.2,0.5-0.2,0.9-0.2,1c0,0.1,0,0.2,0,0.2c-0.1-0.2,0.2,0.8,0.3,0.8c0.8,2.1,2.7,5,4.5,7.8c1.8,2.9,3.8,6,5.2,9.9
			c0.6,2,1.2,4.3,0.7,6.9c-0.1,0.6-0.3,1.3-0.5,1.9l-0.4,0.9l-0.3,0.6c-0.4,0.8-0.8,1.5-1.3,2.3c-0.9,1.5-1.9,3-3,4.3
			c-1.1,1.3-2.2,2.4-3.2,3.5c-2.2,2.2-4.3,4.1-6.4,5.7c-4.1,3.3-8,5.6-10.9,6.7c-1.5,0.5-2.7,0.8-3.5,0.8c-0.8,0.1-1.3,0-1.3,0
			s1.8-0.3,4.1-2.1c2.4-1.7,5.4-4.7,8.6-8.5c1.6-1.9,3.3-4,5-6.4c0.8-1.1,1.6-2.4,2.4-3.6c0.7-1.2,1.3-2.4,1.8-3.8
			c0.3-0.7,0.5-1.4,0.7-2.1l0.2-0.6l0-0.3c0-0.2,0-0.3,0-0.5c0-0.7-0.3-1.7-0.8-2.9c-1.1-2.4-2.9-5.1-4.8-7.9
			c-1.9-2.9-3.9-5.7-5.5-10c-0.1-0.3-0.2-0.6-0.2-0.8l-0.1-0.3l0-0.2c-0.1-0.4-0.1-0.3-0.1-0.4c-0.1-0.8-0.2-1.5-0.2-2.3
			c0-1.5,0.4-2.8,0.8-3.8c0.8-2.1,1.9-3.7,2.8-5c0.9-1.4,1.8-2.6,2.3-3.5c0.5-0.7,0.9-2.1,1.1-3.2c0.5-2.3,0.3-4.6-0.1-6.9
			c-0.2-1.1-0.5-2.4-0.8-3.4c-0.2-1-0.6-1.9-0.9-2.8c-0.8-1.7-1.8-3.1-2.7-4.1c-1-1-1.9-1.7-2.6-2C268.4,149.8,268,149.6,268,149.6z
			"/>
		<path fill="#3F2307" d="M202.8,114.4c-5.6,5.2-10.1,11.3-13.4,17.9c-3.2,6.6-5.3,13.8-5.8,21c-0.2,3.6-0.3,7.3,0.2,10.7
			c0.5,3.4,1.5,6.4,3.4,9c1,1.4,2.3,2.9,3.4,4.8c1.1,1.8,2.1,4.1,2.6,6.2c1.1,4.4,0.9,8.7,0.2,12.8c-0.3,2-0.8,4.1-1.4,6
			c-0.6,1.9-1.2,3.6-1.5,5.2c-0.8,3.3-0.6,5.7,1,7.6c1.6,1.9,4.9,3.2,8.5,4.5c3.6,1.4,7.8,2.9,10.9,6.7c2.9,3.5,4.3,7.9,4.2,12.4
			c-0.1,2.2-0.5,4.4-1.5,6.4c-0.9,2-2.1,3.6-3,5.2c-0.9,1.6-1.7,3-1.9,4.5c-0.2,1.3,0.1,2.9,0.8,4.3c1.4,2.8,4.6,5,7.7,4.6l10.8-1.5
			l-10,4.4c-3.6,1.6-7.9,2.2-11.9,1.2c-4-0.9-7.6-3.2-10.3-6.1c-2.7-2.9-4.8-6.5-5.9-10.3c-0.6-1.9-1-4-1.2-5.8
			c-0.1-0.9-0.3-1.6-0.5-2.2l-0.2-0.3c-0.1-0.2-0.3-0.4-0.3-0.6c-0.1-0.2-0.3-0.4-0.6-0.7c-2-1.9-5.9-2.6-9.5-4.2
			c-3.6-1.6-7.1-3.8-9.9-6.7c-3-3-5-6.6-6.1-10.7c-0.5-2-0.7-4.2-0.5-6.4c0.2-2.2,0.9-4.4,1.5-6.1c0.6-1.7,1.2-3.3,1.1-4.4
			c-0.1-1.1-0.5-1.8-1.7-2.9c-1.1-1-2.7-2-4.4-3.5c-0.1-0.1-0.1-0.1-0.4-0.4l-0.2-0.3l-0.5-0.5c-0.4-0.5-0.8-1.1-1.1-1.5
			c-0.6-1-1.1-2.1-1.4-3.2c-1.3-4.4-0.7-9.3,2.4-13c1.5-1.8,3.2-3,4.4-4.1c0.6-0.5,1.1-1.1,1.4-1.6c0.1-0.2,0.3-0.5,0.4-0.7
			c0.2-0.5,0.2-0.7,0.3-0.9c0.4-2.3-1.1-5.7-2.7-9.1l-0.3-0.7l-0.2-0.4l-0.1-0.3l-0.4-1.3c-0.3-0.9-0.6-2.1-0.7-3.1
			c-0.4-2-0.4-4-0.3-6c0.3-4,1.4-7.9,3.4-11.3c1.9-3.4,4.7-6.3,7.9-8.2c-2.5,2.8-4.5,5.9-5.6,9.3c-1.2,3.3-1.7,6.9-1.6,10.3
			c0.1,1.7,0.3,3.4,0.7,5.1c0.2,0.8,0.4,1.5,0.7,2.3l0.5,1.3l0.1,0.3c0-0.1,0.1,0.1,0.1,0.2l0.3,0.6c0.8,1.6,1.7,3.3,2.4,5.2
			c0.7,1.9,1.4,4.2,1,6.8c-0.1,0.7-0.4,1.5-0.5,1.8c-0.2,0.7-0.5,1.2-0.9,1.8c-0.7,1.1-1.5,1.9-2.3,2.6c-1.6,1.4-3,2.4-3.8,3.5
			c-1.7,2.1-2.2,5.4-1.4,8.1c0.2,0.7,0.5,1.3,0.9,1.9c0.2,0.3,0.3,0.5,0.5,0.7l0.5,0.5l0.2,0.3c-0.1-0.1,0.1,0.1,0.1,0.1
			c1.1,1,2.7,2,4.3,3.4c1.7,1.4,3.4,4,3.4,6.7c0,2.7-0.9,4.7-1.5,6.4c-0.7,1.8-1.2,3.1-1.3,4.7c-0.2,1.6,0,3.2,0.3,4.7
			c0.7,3.1,2.4,6.2,4.7,8.6c2.3,2.5,5.2,4.4,8.3,6c1.6,0.8,3.2,1.4,5,2.1c1.8,0.7,3.8,1.6,5.5,3.3c0.4,0.4,0.8,0.9,1.2,1.5
			c0.2,0.3,0.2,0.4,0.4,0.6c0.2,0.4,0.3,0.6,0.4,0.9c0.4,1.1,0.6,2.2,0.7,3.2c0.2,1.9,0.4,3.5,0.9,5.2c0.9,3.3,2.6,6.4,4.9,9
			c2.3,2.6,5.2,4.5,8.5,5.3c3.2,0.8,6.7,0.5,9.9-0.8l0.8,3c-4.6,0.4-8.9-2.1-11.1-5.9c-1.1-1.9-1.8-4.2-1.6-6.6
			c0.2-2.3,1.2-4.4,2.1-6.1c0.9-1.8,1.9-3.3,2.5-4.8c0.5-1.5,0.8-3.1,0.7-4.7c-0.1-3.2-1.5-6.4-3.6-8.6l-0.8-0.8
			c-0.3-0.2-0.4-0.4-0.8-0.6l-0.6-0.4c0,0-0.3-0.2-0.2-0.1l-0.3-0.1c-0.4-0.2-0.7-0.4-1.1-0.5c-1.5-0.7-3.1-1.3-4.9-1.8
			c-3.5-1.2-7.8-2.1-11.6-5.8c-0.5-0.5-1-1.2-1.4-1.7l-0.4-0.6l-0.2-0.3l-0.1-0.2l-0.2-0.3l-0.1-0.1c-0.6-1.2-1-2.5-1.2-3.7
			c-0.4-2.5-0.1-4.9,0.4-7c0.9-4.2,2.3-7.5,2.8-10.9c0.6-3.4,0.7-6.8,0-9.8c-0.4-1.6-0.8-2.8-1.6-4.3c-0.8-1.4-1.9-2.8-3.1-4.6
			c-2.5-3.6-3.8-8.2-4.1-12.2c-0.3-4.2-0.1-8.1,0.5-12.1c1.3-7.9,4.2-15.4,8.5-22C190.7,124,196.3,118.4,202.8,114.4z"/>
	</g>
</g>
</svg>
