<svg id="Layer_1" data-name="Layer 1" xmlns="http://www.w3.org/2000/svg" viewBox="0 0 325 278" preserveAspectRatio="xMinYMin meet">
  <title>Salmon</title>
  <g>
    <path d="M316.44,147c-7.19-6.87-14.22-13.93-21.82-20.36a105.2,105.2,0,0,0-11.93-9.06c-0.88-.55-3.58-1.23-3.43-2.4,0.13-1,2.78-2.28,3.61-2.6a22.86,22.86,0,0,1,7.39-1.21c1.56-.06,14.4.66,14.73-1.26a14,14,0,0,0-.72-7.56c-2.63-6.62-9.66-10.58-15.43-14.1A83.71,83.71,0,0,1,280,82.6c-3.36-2.69-5.55-7.89-7.16-11.62-1.92-4.46,2.39-7.13,2.4-11.35,0-3.08-2-4.42-4.64-5.57-4.86-2.15-4.4-3.68-5.94-8.1,3.63-20-9.52-41.34-30-44.6a35.06,35.06,0,0,0-4.43-.41c-17-.49-29.76,11.29-33.19,25.82l-0.3-.08a44.65,44.65,0,0,0-14.23-2c3.63-8.39-10.55-14.7-17.67-14-8,.8-14.32,13.23-9.63,19.42-2,.76-4,1.56-5.86,2.39l-0.09.19a17.66,17.66,0,0,0-8.13-1.45c-6.21.08-21,3.72-24.66,9.83l0.6,0.28a52.87,52.87,0,0,0-10.85,2.23c-21.93,7-13.52,35.82,2.72,43.93a35.94,35.94,0,0,0,11.63,3.24c-3,3.75-1.07,8.35,1.56,11.79a39.46,39.46,0,0,0,5.8,5.94,22,22,0,0,0,3.33,2.6c0.65,0.36,1.71.24,1.79,1.24,0.26,3.2-25.77,4.27-28.93,4.58-12.81,1.24-14.07,6.66-2.61,14,14.39,9.24,43.64,9.95,60.11,13.42a43.54,43.54,0,0,1,0,4.81,72.17,72.17,0,0,1-6.77,28.33,106.46,106.46,0,0,1-13.36,20.23c-3.33,4.12-6.85,8.09-10.46,12q-3.12,3.37-6.34,6.66c-1.51,1.55-3.76,5.23-6.29,3.12a28.33,28.33,0,0,1-4.23-5.22A60.43,60.43,0,0,1,108,202.73c-3.42-8.12-5.61-16.68-8.05-25.13-4.16-14.42-12.39-31.68-22.48-42.94-3.3-3.68-7.62-6.6-11.43-9.13-1.41,7.41-4.66,25-6.83,35-2.45,11.24-1.75,37.1,3.7,48.18-21.77.09-37.39-5.38-57.64,7.05a55.87,55.87,0,0,0,34,24.44c15.18,3.79,23,9.49,33.8,13.72,13.46,5.24,27.78,10.86,42.11,13.16,25.24,4,52.45,5.58,74.9-8.86l0.75-.48c5.48-3.54,10.56-7.2,14.72-12.25,5.92-7.19,11.18-14.74,17.66-21.4q3.86-4,7.58-8a188.33,188.33,0,0,0,17.87-22.82c2.67-4.06,5.17-8.23,7.52-12.49,0.71-1.29,6.8-14.1,7.2-14,11.42,2.37,23.06,3.11,34.61.08C307.71,164.26,329.55,159.52,316.44,147Z" fill="#f3aba8"/>
    <path d="M211.91,25c4.46,15.21,30.73,12.54,33.24-2.63C249.48-3.75,205.58,3.36,211.91,25Z" fill="#231f20"/>
    <path d="M160.37,12.74c6.2-3,11.05,6.9,2.88,7.67C158.86,20.82,155.67,15,160.37,12.74Z" fill="#231f20"/>
    <path d="M195,126.47c2.6-3.26,8-.26,6.6,3.63C200,134.7,190.76,131.75,195,126.47Z" fill="#231f20"/>
    <path d="M195.62,151.29c3.51-3.07,8.31,2.95,6.17,6.28C198.29,163,191.3,155.06,195.62,151.29Z" fill="#231f20"/>
    <g>
      <path d="M324.37,149.27c-1-3.23-13.71-13.49-17.11-16.43s-6.67-5.85-9.9-8.48-6.43-5-9.44-7.07c-0.48-.33-0.94-0.59-1.42-0.9l0.13,0a38.9,38.9,0,0,1,5.24-.58c3.71-.17,7.75.05,12.14-0.69l4.59-.78,0.35-2.88a18.77,18.77,0,0,0-.46-7.16A17.92,17.92,0,0,0,305.34,98a33.55,33.55,0,0,0-9.45-7.91c-3.31-2-6.65-3.65-9.83-5.39-1.51-.83-3-1.68-4.36-2.59-0.32-1.18-.67-2.35-1-3.48-1.29-3.9-2.74-7.49-4.21-10.91l0.1-.1a8.61,8.61,0,0,0,1.38-2.14,7.47,7.47,0,0,0,.32-4.8,13.92,13.92,0,0,0-.61-1.93c-0.24-.54-0.53-1.29-0.77-1.7a5.83,5.83,0,0,0-1.41-2,6.43,6.43,0,0,0-1.8-1.11,8.18,8.18,0,0,0-2.44-.59,42.29,42.29,0,0,0,.8-16.19,44.69,44.69,0,0,0-6.73-17.69A43.23,43.23,0,0,0,254.77,8.1a41.57,41.57,0,0,0-5.34-3.47c-1.76-.87-3.42-1.57-4.87-2.25l-4.26-1.3a22,22,0,0,0-2.95-.54l-2.41-.37-0.29,0-2.44-.07-1.33,0L230,0l-0.88.08C227.9,0.2,226.51.27,225,.44c-1.51.39-3.24,0.54-5,1.05a43,43,0,0,0-5.74,2A41.72,41.72,0,0,0,208,6.74a40.43,40.43,0,0,0-5.92,5.09,39.27,39.27,0,0,0-7.59,11.69c-1.29-.07-2.84-0.13-4.59-0.09-0.94,0-2,0-3,0-0.06-.2-0.1-0.37-0.17-0.59a17.11,17.11,0,0,0-3.51-6.18,20.55,20.55,0,0,0-3.38-3,22.38,22.38,0,0,0-4.31-2.38,23.85,23.85,0,0,0-5-1.38,21.33,21.33,0,0,0-2.66-.27,17.41,17.41,0,0,0-2.61.07A16.64,16.64,0,0,0,160,10.94a11.78,11.78,0,0,0-4.47,3.23A16.3,16.3,0,0,0,152.09,23a54.83,54.83,0,0,0-.09,6.42v0c0,0.33-2.1.58-2.7,0.75a14.48,14.48,0,0,0-2.65-.66,24.4,24.4,0,0,0-4.91-.27,30.82,30.82,0,0,0-4.54.51,55.52,55.52,0,0,0-7.77,2,37.62,37.62,0,0,0-10.89,5.39,16.44,16.44,0,0,0-2.4,2.32l-3,.44a33.11,33.11,0,0,0-4.62,1l-2.29.6-0.29.08-0.14,0-0.07,0-0.3.11-0.52.22-1,.43-2.08.86c-0.76.41-1.56,0.92-2.33,1.39A25.14,25.14,0,0,0,95.18,48a22.12,22.12,0,0,0-5.49,9.3,27.63,27.63,0,0,0-1,5.35A34.89,34.89,0,0,0,88.74,68a39.64,39.64,0,0,0,2.45,10.43A37.78,37.78,0,0,0,96.63,88a34.21,34.21,0,0,0,8.82,7.75l0.33,0.16c0.77,0.4,1.4.76,2.29,1.19s1.55,0.65,2.31,1c0.16,0.56.29,1.12,0.51,1.69a25.78,25.78,0,0,0,6.94,10.18,28.82,28.82,0,0,0,3.75,2.48c-1.86.06-3.87-.42-6.09-0.42-2.73,0-12.94.91-13.81,1a26,26,0,0,0-6.2,1.38,12.31,12.31,0,0,0-3.75,2.16,10.07,10.07,0,0,0-1.95,2.31,8.64,8.64,0,0,0-1.05,3.42A10.07,10.07,0,0,0,90,127.82a18.26,18.26,0,0,0,2.31,3.28,34.64,34.64,0,0,0,4.82,4.48l1.22,0.95,1.41,0.95a24.14,24.14,0,0,0,2.43,1.54l3,1.56L108,141.8c1.87,0.82,3.71,1.43,5.55,2.09,3.67,1.2,7.28,2.21,10.74,3,6.93,1.68,13.32,2.86,18.68,3.88a79.78,79.78,0,0,0,12.76,1.63c0.82,0,1.52,0,2.13,0l-0.06.67a67,67,0,0,1-3,13.8A63.39,63.39,0,0,1,149,179.26a130.06,130.06,0,0,1-15.34,19.54c-5.08,5.39-9.59,9.68-12.76,12.68l-2.36,2.19a37.36,37.36,0,0,1-4.39-8.41,95.53,95.53,0,0,1-3.5-12.37c-1-4.23-1.91-8.52-3.07-12.85-0.57-2.1-1.26-4.45-2-6.54-0.79-2.29-1.61-4.51-2.48-6.67A109.87,109.87,0,0,0,89.5,142.39,70.64,70.64,0,0,0,80,131.9a51,51,0,0,0-12.1-7.38h0l-2.26-1.32L65,125.7l-4.55,20.53L58.2,156.49l-1.14,5.21c-0.36,1.69-.66,3.71-0.87,5.45a123.93,123.93,0,0,0-.54,21.6,98.35,98.35,0,0,0,1.27,10.87c0.31,1.78.74,3.57,1.21,5.37-3-.06-5.92-0.17-8.92-0.31-2.47-.14-5-0.31-7.48-0.4s-5.06-.07-7.63-0.08a69.66,69.66,0,0,0-7.75.59c-1.29.23-2.59,0.36-3.87,0.68s-2.59.48-3.84,0.88-2.56.67-3.78,1.15-2.5.85-3.7,1.38C8.7,209.81,6.37,211,4,212.13H4l-4,2,2.55,4.18a60.57,60.57,0,0,0,30.9,25.38c4.42,1.6,8.44,2.49,12,3.84,7.41,2.59,14.16,6.59,22.15,10.43,4.14,1.91,7.89,3.39,11.8,5s7.86,3.17,11.89,4.65,8.14,2.86,12.36,4.06a123.62,123.62,0,0,0,12.91,2.94c4,0.75,8.51,1.41,12.73,2s8.64,1,13.06,1.16,8.86,0.19,13.37,0a120,120,0,0,0,13.63-1.44,78.44,78.44,0,0,0,13.6-3.56,75.35,75.35,0,0,0,12.87-6.23l0,0c2.88-1.87,6.17-4,9.46-6.55a48,48,0,0,0,8.95-9.18l6.41-8.61,6.11-8.45h0l3.49-5.07c1.12-1,2.39-2.17,3.77-3.44a213.35,213.35,0,0,0,18.8-19.59,199.77,199.77,0,0,0,16-22.36c1.57-2.52,2.87-4.69,3.89-6.42,9.91,1.57,28.79-.82,37.5-5.17,3.85-1.92,9.58-6.54,11.67-9.47a17.9,17.9,0,0,0,2.68-5.52A13.75,13.75,0,0,0,324.37,149.27Zm-32-54a26.83,26.83,0,0,1,6.74,7,10.18,10.18,0,0,1,1.06,2.56c-0.65-.12-1.29-0.26-2-0.34a29.49,29.49,0,0,0-7.46.15,25,25,0,0,0-5.73,1.57l-0.09-2.29a109.18,109.18,0,0,0-1.1-11.88c-0.16-1.09-.43-2.23-0.64-3.35l0.25,0.19C286.48,91.08,289.55,93.1,292.34,95.27ZM273,57.43a1.21,1.21,0,0,1,.15.72,4.47,4.47,0,0,1,0,1.35,2.32,2.32,0,0,1-.11.35c-0.56-1.2-1.09-2.33-1.61-3.42a3,3,0,0,1,.93.36A2,2,0,0,1,273,57.43ZM200.73,28.92a30.1,30.1,0,0,1,5.38-13.71,27.7,27.7,0,0,1,9.62-8.49,24.09,24.09,0,0,1,5-2.08,40.48,40.48,0,0,1,4.58-.82c1.41,0,2.67,0,3.75,0l0.78,0,0.63,0.1,1.31,0.21L234,4.48l2.32,0.73a19.54,19.54,0,0,1,2.7.95l3.12,1.54c1.12,0.78,2.41,1.54,3.69,2.54a34.1,34.1,0,0,1,3.73,3.65,31,31,0,0,1,6.16,10.53,35,35,0,0,1,2.06,13.66,32.67,32.67,0,0,1-3.91,13.81C253.25,53,252.52,54,251.9,55l-2.43,2.82a2.76,2.76,0,0,0-.78.35,2.52,2.52,0,0,1-.91.59A12.68,12.68,0,0,1,245,60c-4.13,1.49-9.69,1.71-15.26.87a48.64,48.64,0,0,1-16-5.56,28.05,28.05,0,0,1-6.36-4.68,9.38,9.38,0,0,1-1.17-1.36l-1-1.16c-0.71-1.37-1.69-2.95-2.17-4.11A28.57,28.57,0,0,1,200.73,28.92Zm53.79,48.15a3,3,0,0,1,2-.93,3.27,3.27,0,0,1,2.2.74,3.43,3.43,0,0,1,1.23,2.1,6.26,6.26,0,0,1,.18,1.29,5.88,5.88,0,0,1-.07,1.39,3,3,0,0,1-.79,1.74,1.62,1.62,0,0,1-.86.41,9.46,9.46,0,0,1-2.26,0,2.49,2.49,0,0,1-1.86-1.24,5.35,5.35,0,0,1-.39-1.06v0.15l0-.42c0-.24-0.1-0.75-0.1-1.11A4.38,4.38,0,0,1,254.52,77.07Zm-96-60.42a6.92,6.92,0,0,1,2.94-2.25,12.13,12.13,0,0,1,4-.91,13.21,13.21,0,0,1,2.22,0,17.61,17.61,0,0,1,2.1.31,17,17,0,0,1,3.89,1.42,13.92,13.92,0,0,1,3.09,2.2A11.75,11.75,0,0,1,178.86,20a10.21,10.21,0,0,1,1,2.42,9.65,9.65,0,0,1,.25,1.48c-2.44.21-4.94,0.48-7.44,0.85-1.52.3-3.06,0.49-4.55,0.8l-4.38.92q-3.43.79-6.32,1.56a19.53,19.53,0,0,1-.73-4.78A10.31,10.31,0,0,1,158.52,16.65ZM130.79,36.37A50.54,50.54,0,0,1,138,35.07a25.3,25.3,0,0,1,3.79-.16,18.64,18.64,0,0,1,3.76.46c2.33,0.54,4.29,1.87,6.66,3.84l1.81,1.5a7.68,7.68,0,0,0,3.54,1.78h0.15a42.26,42.26,0,0,0-2.85,3.13c-0.26.31-.48,0.57-0.72,0.84q-2.06-.95-4.16-1.78c-1.46-.54-2.89-1.14-4.37-1.63l-4.47-1.37a70.14,70.14,0,0,0-9.17-1.92,58.89,58.89,0,0,0-8.72-.67A39.31,39.31,0,0,1,130.79,36.37Zm51.57,29.75c-0.45-.44-0.86-0.91-1.31-1.34A90.7,90.7,0,0,0,174,58.73c-1.07-.86-2.18-1.66-3.3-2.46,0.07-.42.14-0.89,0.19-1.44a8.35,8.35,0,0,0-.38-3.08,20.35,20.35,0,0,0-2.52-4.32c-0.43-.64-0.85-1.3-1.23-1.93a18.82,18.82,0,0,0-1.38-2.22,9.8,9.8,0,0,0-1.2-1.35,20.25,20.25,0,0,1,3.35-.24,14.69,14.69,0,0,1,3.66.58A12.82,12.82,0,0,1,177,45.92a16,16,0,0,1,3.34,5.81,44.64,44.64,0,0,1,1.83,6.66A19.25,19.25,0,0,1,182.36,66.13ZM164,51.84q-1.18-.72-2.37-1.42a10.19,10.19,0,0,1-.31-2.16,7.2,7.2,0,0,1,.38-2.9,0.18,0.18,0,0,0,0-.1,2.39,2.39,0,0,1,.4.42,11.51,11.51,0,0,1,1.66,3.7A5.71,5.71,0,0,1,164,51.84ZM161.36,45c0-.06.11,0,0.26,0.1A0.44,0.44,0,0,1,161.36,45ZM107.55,77.5a25.6,25.6,0,0,1-5-5A23.29,23.29,0,0,1,99,66a25.07,25.07,0,0,1-1-3.55,18.85,18.85,0,0,1-.19-3.59,12.25,12.25,0,0,1,2.12-6.76,10.8,10.8,0,0,1,2.56-2.55l1.46-1,2.08-.86,1-.43,0.38-.16h0l0.13,0,0.26-.07,2.06-.53a28.44,28.44,0,0,1,4.15-.91c1.41-.19,2.81-0.46,4.22-0.58l4.27-.19a57.56,57.56,0,0,1,8.54.64,64.44,64.44,0,0,1,8.43,1.77,69.7,69.7,0,0,1,8.13,3A75.9,75.9,0,0,1,155.45,54c2.55,1.39,5,3,7.38,4.6A82.07,82.07,0,0,1,169.67,64a83.78,83.78,0,0,1,6.29,6c1,1.06,2,2.16,3,3.28l-0.67.39q-1.93,1-4.06,1.91c-2.85,1.16-5.84,2.16-8.86,3.12s-6.14,1.74-9.25,2.47l-4.66,1-2.28.45c-0.9.17-1,.16-2,0.29l-4.58.31-4.75.2a91.31,91.31,0,0,1-9.19-.19c-3-.19-5.83-0.52-8.47-0.95q-2-.27-3.81-0.69l-1.45-.29c-0.65-.19-1.53-0.55-2.28-0.81L113,80.59A18.73,18.73,0,0,1,107.55,77.5Zm-8.86,46.59a0.55,0.55,0,0,1,.3-0.31v0A0.52,0.52,0,0,1,98.69,124.08Zm46.54,9.25c-5.44-.4-11.68-0.82-18.15-1.63-3.25-.38-6.51-0.92-9.76-1.57-1.58-.37-3.22-0.7-4.74-1.18l-2.28-.69-1.94-.7a25.07,25.07,0,0,1-2.36-1.07l-0.62-.29-0.31-.15-0.15-.07,0.24,0.14,0,0-0.06,0-1-.58a24.74,24.74,0,0,1-3.52-2.35l-0.13-.11c0.76-.29,1.63-0.54,2.42-0.77l2.26-.45,2.31-.38,8.71-1.49c5.26-.93,9.7-1.87,12.84-2.78a103.39,103.39,0,0,0,11.43,4.68,44.3,44.3,0,0,1,5.85,2.69,24.41,24.41,0,0,1,5.19,3.82,21.36,21.36,0,0,1,4.49,6.37A69.47,69.47,0,0,0,145.24,133.34Zm47.74,111c-2.28,1.78-4.92,3.51-8,5.47a73.7,73.7,0,0,1-19.58,9,81.22,81.22,0,0,1-22.72,2.86c-3.92,0-7.9-.19-11.89-0.45s-7.87-.7-12.07-1.27a108.69,108.69,0,0,1-11.59-2c-3.85-.88-7.71-2-11.58-3.17s-7.74-2.51-11.62-3.88-7.94-2.78-11.44-4.2c-7.2-3-15.12-7.14-23.63-9.66-4.36-1.4-8.57-2.09-12-3.23A50.2,50.2,0,0,1,12.67,217c0.6-.36,1.19-0.73,1.8-1.07a33.21,33.21,0,0,1,3.09-1.51c1-.52,2.12-0.85,3.19-1.28a47.35,47.35,0,0,1,13.59-2.59,108.39,108.39,0,0,1,14.4.53c4.87,0.51,9.81,1.06,14.8,1.7l6.35,0.81-2.67-6.5h0a33.77,33.77,0,0,1-1.79-4.24c-0.48-1.54-.94-3.1-1.31-4.73a91.35,91.35,0,0,1-1.66-10A117.81,117.81,0,0,1,62,167.7c0.13-1.75.26-3.22,0.54-5l0.86-5.13,1.76-10.41,3-17.56a58.07,58.07,0,0,1,6.81,7.06,91,91,0,0,1,6.85,10.76A155.18,155.18,0,0,1,92.07,171c0.71,2,1.34,4.05,1.92,6l1.79,6.36a118.5,118.5,0,0,0,4.62,12.9,105.45,105.45,0,0,0,6.44,12.58,69.37,69.37,0,0,0,8.54,11.67c3.69,3.95,7.26,6.31,11.19,9a70.2,70.2,0,0,0,12.56,6.6,72.66,72.66,0,0,0,13.71,4c2.27,0.44,4.8.81,6.94,1.07,2.38,0.28,4.77.5,7.11,0.63,4.69,0.25,9.31.22,13.93,0.1s9.24-.33,13.86-0.74l1.9-.17A28.52,28.52,0,0,1,193,244.38Zm118-91.89A51.88,51.88,0,0,1,300.9,156c-1.88.5-3.77,1-5.46,1.4l-0.08,0,0.24-.06h-0.05l-0.21,0-0.42.09-0.83.19-1.66.38c-0.92.16-1.67,0.33-2.51,0.51a136.42,136.42,0,0,1-21.51,2.11l-9.5.24c-2.9,0-5.52.23-7.68,0.28-4.35.24-7,.6-7,0.6a53.56,53.56,0,0,0,5.48,4.45h0c-0.65,1.58-1.44,3.45-2.37,5.58a177.46,177.46,0,0,1-11.2,21.73,194.68,194.68,0,0,1-14.41,20.17c-1.45,1.8-2.76,3.38-3.87,4.71l-1.83,1.1a54.84,54.84,0,0,1-11,4.75c-4,1.32-8.18,2.48-12.4,3.5a156.14,156.14,0,0,1-25.73,3.71c-2.14.09-4.23,0.18-6.32,0.08-2.32-.1-4.24-0.23-6.41-0.46a61,61,0,0,1-12.31-2.55,62.5,62.5,0,0,1-11.49-5.29l-1.51-.92,1.52-1.69c3-3.36,7.23-8.21,12.08-14.31A140.14,140.14,0,0,0,157.58,184a77.81,77.81,0,0,0,5.75-14.51,75.4,75.4,0,0,0,2.51-15.84L166,149.9c0-1.52,0-2.77-.08-4.18a36.62,36.62,0,0,0-1.38-8.24,29.13,29.13,0,0,0-8.91-13.62,71.46,71.46,0,0,0-5.83-4.74c-1.94-1.46-3.95-2.86-5.68-4.09a53.79,53.79,0,0,1-8.88-7.67,20.81,20.81,0,0,1-4.46-7c2.93-.23,5.8-0.56,8.61-1l5.17-.9,5.3-1.08c0.65-.17,2.2-0.59,2.91-0.84l2.54-.86c1.66-.59,3.28-1.24,4.89-1.9,3.22-1.33,6.39-2.74,9.52-4.29a82.47,82.47,0,0,0,9.23-5.28,54.72,54.72,0,0,0,4.45-3.3,28.66,28.66,0,0,0,4.15-4.32h0l0.07-.08,0.06,0.09a9.46,9.46,0,0,0,1.63-1.42,12.33,12.33,0,0,0,2.81-4.8c1.34-4.22.86-9.1-.49-14.17a54,54,0,0,0-2.83-7.92A25,25,0,0,0,183,39.81,21.1,21.1,0,0,0,173,34.62a22.48,22.48,0,0,0-5.65-.49,28.24,28.24,0,0,0-5.33.79l-3.45.76c0.29,0.13,0,.08-0.6-0.35L156.12,34l-0.45-.31c0.61-.31,1.2-0.61,1.92-0.94a62.39,62.39,0,0,1,7.12-2.7,63.37,63.37,0,0,1,8.5-2,50.56,50.56,0,0,1,8.66-.62,32.6,32.6,0,0,1,7.4,1.07,23.21,23.21,0,0,1,3.28,1.16,38,38,0,0,0-1.12,7.55,38.18,38.18,0,0,0,1.21,11c0.45,1.87,1,3.14,1.48,4.76l0.09,0.29,0,0.14,0.25,0.53,0.35,0.68L195.58,56a20.23,20.23,0,0,0,1.58,2.67A36.92,36.92,0,0,0,201,63.3a33.68,33.68,0,0,0,4.35,4,54.85,54.85,0,0,0,20.92,10.22A43.61,43.61,0,0,0,250.84,77c0.43-.12.84-0.34,1.27-0.5a8,8,0,0,0-1.91,3.27c-0.2.62-.24,0.92-0.33,1.22l-0.1.41v0.15a8.47,8.47,0,0,0,0,2.09,8.28,8.28,0,0,0,2.67,5.58,7.94,7.94,0,0,0,9,1.07A7.52,7.52,0,0,0,265.12,86a8.35,8.35,0,0,0,.06-5,11.65,11.65,0,0,0-.76-2,10.18,10.18,0,0,0-1.13-1.87A8,8,0,0,0,260,74.49a7,7,0,0,0-2.81-.45,16.49,16.49,0,0,0,3-2.13c1-.89,2.06-1.82,3-2.77,0.63-.73,1-1.32,1.56-2l0.74-1,0.9-1.23,0.35-.66,0.39-.75,1.39,5.08c1.06,4,2.29,8.26,3.11,12.35,0.39,2.15.78,4.16,1,6.21s0.48,4.07.59,6c0.23,3.93.28,7.65,0.22,10.89l-0.12,4.46c0,0.34,0,.65,0,1-0.39-.15-0.81-0.34-1.18-0.47a11.64,11.64,0,0,0-5.1-.55,8.45,8.45,0,0,0-2,.42,8.46,8.46,0,0,0,1.14,1.71A18.66,18.66,0,0,0,269.9,114c1.69,1,3.82,2.26,6.11,3.85s4.87,3.41,7.66,5.43A163.52,163.52,0,0,1,301.42,139c3.06,3.17,6.16,6.54,9.21,10.12l1.14,1.36A1.39,1.39,0,0,1,311,152.49Z" fill="#231f20"/>
      <path d="M182.66,100.72c-2.61-8.47-14.2-9.65-17.81-1.06C159,113.64,183.06,115.79,182.66,100.72Zm-6.19,0c-0.22.72-1.49,3.87-6,3.86C165.16,104.61,173.42,88.07,176.46,100.77Z" fill="#231f20"/>
      <path d="M246.52,115.94a6.13,6.13,0,0,1-1,.18,2.15,2.15,0,0,1-.92-0.2,14,14,0,0,1-1.31-1.21l-0.58-.54a11.28,11.28,0,0,0,.51-3,17.55,17.55,0,0,0-.53-3.38,15.32,15.32,0,0,0-6.49-8.53,9.18,9.18,0,0,0-4.28-1.39,6.58,6.58,0,0,0-3.39.62c-0.93.49-1.49,0.82-1.78,1l-0.55.25-0.1.06-0.65.4a7.63,7.63,0,0,0-1.6,1.37,15.84,15.84,0,0,0-3.41,6.33,15.43,15.43,0,0,0-.58,5.1,11.17,11.17,0,0,0,.64,3.16,7.2,7.2,0,0,0,.94,1.88l0.68,1,0.36,0.48a12.08,12.08,0,0,0,7.28,3.61,10.8,10.8,0,0,0,4-.15,12.53,12.53,0,0,0,3.49-1.68,15.42,15.42,0,0,0,1.62-1.26,8.65,8.65,0,0,0,2.2.82,7.23,7.23,0,0,0,2.75.06,5.44,5.44,0,0,0,2.43-1.07,4,4,0,0,0,1.54-3.09,4.77,4.77,0,0,0-.19-1.18Zm-14.31-4c-3,1.21-3.78.92-4.5,0.49a3.08,3.08,0,0,1-.8-1,8.48,8.48,0,0,1-.89-2.94,9,9,0,0,1,.65-4.92,4.6,4.6,0,0,1,.68-1.11l0.29-.35-0.1.06,0.5-.33a2,2,0,0,1,1.33-.32,4.82,4.82,0,0,1,3.68,1.82,9.11,9.11,0,0,1,1.93,4.44,4.5,4.5,0,0,0-2.14.8,8.51,8.51,0,0,0-.87.75s0.34,0.29.91,0.7a6.18,6.18,0,0,1,1.12,1.07A8.69,8.69,0,0,1,232.21,112Z" fill="#231f20"/>
      <path d="M223.92,86.19a2.22,2.22,0,0,0,.1-1.51,2,2,0,0,0-.38-0.77l-0.17-.23a3.07,3.07,0,0,1-.84.56,1,1,0,0,1-.78.06,2.06,2.06,0,0,1-.56-0.47,12.09,12.09,0,0,0-4.6-2.31,12.69,12.69,0,0,0-6.89-.17A4.68,4.68,0,0,0,207.14,83a1.1,1.1,0,0,0-.25.91l0.05,0.28,0.28-.07a0.64,0.64,0,0,1,.61.15c0.42,0.25.82,0.75,1.44,1.26a13.66,13.66,0,0,0,5.38,3.06,12.46,12.46,0,0,0,3.77.49,7.72,7.72,0,0,0,4.08-1.18A3.47,3.47,0,0,0,223.92,86.19Z" fill="#231f20"/>
    </g>
    <path d="M153.5,119.81c-0.61-1,4-4,5.45-1.9C161.26,121.34,155.72,123.3,153.5,119.81Z" fill="#231f20"/>
  </g>
</svg>
